<svg width="11" height="7" viewBox="0 0 11 7" fill="none" xmlns="http://www.w3.org/2000/svg">
<path fill-rule="evenodd" clip-rule="evenodd" d="M5.06353 5.4715C3.47701 3.80665 1.6609 2.23542 0.151407 0.645854C0.266097 0.645854 0.06831 0.562652 0.151407 0.645854C0.0367179 0.645854 0.234505 0.562652 0.151407 0.645854C-0.086536 0.870971 -0.0108893 1.44884 0.151407 1.61098C1.72073 3.25846 3.35185 4.63714 5.06353 6.43662C5.17494 6.57922 4.91224 6.43662 5.06353 6.43662C4.94387 6.57922 5.21551 6.43662 5.06353 6.43662L10.9581 1.61098C11.0489 1.50708 10.9618 0.786977 10.9581 0.645854C11.0542 0.744289 10.9544 0.504732 10.9581 0.645854C10.7112 0.386718 10.0912 0.528592 9.97566 0.645854C8.37619 2.37591 6.66782 3.74639 5.06353 5.4715Z" fill="#841A10"/>
</svg>
