<svg width="34" height="34" viewBox="0 0 34 34" fill="none" xmlns="http://www.w3.org/2000/svg">
<path fill-rule="evenodd" clip-rule="evenodd" d="M11.333 9.71447V8.90495C11.333 7.40205 11.93 5.96072 12.9927 4.89801C14.0554 3.8353 15.4967 3.23828 16.9996 3.23828C18.5025 3.23828 19.9439 3.8353 21.0066 4.89801C22.0693 5.96072 22.6663 7.40205 22.6663 8.90495V9.71447H27.5235V30.7621H6.47583V9.71447H11.333ZM12.952 8.90495C12.952 7.83145 13.3785 6.80193 14.1375 6.04285C14.8966 5.28377 15.9261 4.85733 16.9996 4.85733C18.0731 4.85733 19.1027 5.28377 19.8617 6.04285C20.6208 6.80193 21.0473 7.83145 21.0473 8.90495V9.71447H12.952V8.90495ZM11.333 11.3335V13.7621H12.952V11.3335H21.0473V13.7621H22.6663V11.3335H25.9044V29.143H8.09488V11.3335H11.333Z" fill="#841A10"/>
</svg>
