<svg width="34" height="34" viewBox="0 0 34 34" fill="none" xmlns="http://www.w3.org/2000/svg">
<path fill-rule="evenodd" clip-rule="evenodd" d="M11.3327 9.71469V8.90516C11.3327 7.40227 11.9298 5.96093 12.9925 4.89822C14.0552 3.83552 15.4965 3.23849 16.9994 3.23849C18.5023 3.23849 19.9436 3.83552 21.0063 4.89822C22.069 5.96093 22.6661 7.40227 22.6661 8.90516V9.71469H27.5232V30.7623H6.47559V9.71469H11.3327ZM12.9518 8.90516C12.9518 7.83167 13.3782 6.80214 14.1373 6.04306C14.8964 5.28399 15.9259 4.85754 16.9994 4.85754C18.0729 4.85754 19.1024 5.28399 19.8615 6.04306C20.6206 6.80214 21.047 7.83167 21.047 8.90516V9.71469H12.9518V8.90516ZM11.3327 11.3337V13.7623H12.9518V11.3337H21.047V13.7623H22.6661V11.3337H25.9042V29.1433H8.09463V11.3337H11.3327Z" fill="white"/>
</svg>
