<svg width="20" height="19" viewBox="0 0 20 19" fill="none" xmlns="http://www.w3.org/2000/svg">
<g clip-path="url(#clip0_356_5125)">
<g clip-path="url(#clip1_356_5125)">
<g clip-path="url(#clip2_356_5125)">
<path d="M19.5279 5.78348C19.626 8.39542 17.9927 11.1735 16.197 13.0804C14.295 15.0236 12.165 16.7547 9.84841 18.2417C9.81795 18.2697 9.77694 18.2852 9.73467 18.2852C9.6924 18.2852 9.65139 18.2697 9.62093 18.2417C5.90339 15.6494 1.20069 12.3259 0.168908 7.76894C-0.604308 4.34949 1.48286 0.651309 5.49812 0.732895C6.58833 0.739446 7.64252 1.10272 8.48223 1.76017C8.90179 2.11033 9.29149 2.49086 9.64889 2.89819C9.71913 2.97084 9.75642 2.97917 9.82976 2.89819C10.0697 2.64569 10.3152 2.39558 10.5607 2.15201C11.1077 1.59699 11.797 1.18489 12.5621 0.956214C16.0559 -0.0859417 19.4017 2.38426 19.5279 5.78348Z" fill="#841A10"/>
</g>
</g>
</g>
<defs>
<clipPath id="clip0_356_5125">
<rect width="19.5423" height="17.5701" fill="white" transform="translate(0 0.714844)"/>
</clipPath>
<clipPath id="clip1_356_5125">
<rect width="19.5423" height="17.5701" fill="white" transform="translate(0 0.714844)"/>
</clipPath>
<clipPath id="clip2_356_5125">
<rect width="19.5224" height="17.5701" fill="white" transform="translate(0.00976562 0.715088)"/>
</clipPath>
</defs>
</svg>
