<svg width="26" height="26" viewBox="0 0 26 26" fill="none" xmlns="http://www.w3.org/2000/svg">
<path d="M13 17.9998C14.3261 17.9998 15.5979 17.473 16.5355 16.5353C17.4732 15.5976 18 14.3258 18 12.9998C18 11.6737 17.4732 10.4019 16.5355 9.46422C15.5979 8.52654 14.3261 7.99976 13 7.99976C11.6739 7.99976 10.4021 8.52654 9.46447 9.46422C8.52678 10.4019 8 11.6737 8 12.9998C8 14.3258 8.52678 15.5976 9.46447 16.5353C10.4021 17.473 11.6739 17.9998 13 17.9998Z" stroke="#841A10" stroke-width="2.18214" stroke-linecap="round" stroke-linejoin="round"/>
<path d="M1.75 18V8C1.75 6.3424 2.40848 4.75268 3.58058 3.58058C4.75268 2.40848 6.3424 1.75 8 1.75H18C19.6576 1.75 21.2473 2.40848 22.4194 3.58058C23.5915 4.75268 24.25 6.3424 24.25 8V18C24.25 19.6576 23.5915 21.2473 22.4194 22.4194C21.2473 23.5915 19.6576 24.25 18 24.25H8C6.3424 24.25 4.75268 23.5915 3.58058 22.4194C2.40848 21.2473 1.75 19.6576 1.75 18Z" stroke="#841A10" stroke-width="2.18214"/>
<path d="M19.875 6.13796L19.8881 6.12354" stroke="#841A10" stroke-width="2.18214" stroke-linecap="round" stroke-linejoin="round"/>
</svg>
