<svg width="29" height="29" viewBox="0 0 29 29" fill="none" xmlns="http://www.w3.org/2000/svg">
<path d="M14.7874 19.9503C16.3091 19.9503 17.7685 19.3458 18.8445 18.2698C19.9205 17.1938 20.525 15.7344 20.525 14.2127C20.525 12.691 19.9205 11.2316 18.8445 10.1556C17.7685 9.07959 16.3091 8.4751 14.7874 8.4751C13.2657 8.4751 11.8063 9.07959 10.7303 10.1556C9.6543 11.2316 9.0498 12.691 9.0498 14.2127C9.0498 15.7344 9.6543 17.1938 10.7303 18.2698C11.8063 19.3458 13.2657 19.9503 14.7874 19.9503Z" stroke="white" stroke-width="2.45898" stroke-linecap="round" stroke-linejoin="round"/>
<path d="M1.87793 19.9505V8.47524C1.87793 6.5731 2.63355 4.74887 3.97856 3.40386C5.32358 2.05884 7.14781 1.30322 9.04995 1.30322H20.5252C22.4273 1.30322 24.2515 2.05884 25.5966 3.40386C26.9416 4.74887 27.6972 6.5731 27.6972 8.47524V19.9505C27.6972 21.8526 26.9416 23.6768 25.5966 25.0218C24.2515 26.3669 22.4273 27.1225 20.5252 27.1225H9.04995C7.14781 27.1225 5.32358 26.3669 3.97856 25.0218C2.63355 23.6768 1.87793 21.8526 1.87793 19.9505Z" stroke="white" stroke-width="2.45898"/>
<path d="M22.6768 6.33794L22.691 6.32227" stroke="white" stroke-width="2.45898" stroke-linecap="round" stroke-linejoin="round"/>
</svg>
