<svg width="192" height="64" viewBox="0 0 192 64" fill="none" xmlns="http://www.w3.org/2000/svg">
<path d="M8.871 35.8449V37.4288C8.871 37.6759 8.75884 37.8669 8.54576 37.9792C8.33267 38.0915 8.1196 38.0915 7.90652 37.9792C7.69343 37.8669 7.58127 37.6759 7.58127 37.4288V36.4852H5.09156V45.7862H5.51774C5.77568 45.7862 5.96633 45.8986 6.07848 46.112C6.19063 46.3142 6.19063 46.5276 6.07848 46.7411C5.96633 46.9433 5.76446 47.0556 5.51774 47.0556H3.35327C3.09532 47.0556 2.90467 46.9433 2.79252 46.7411C2.68037 46.5276 2.68037 46.3142 2.79252 46.112C2.90467 45.8986 3.09532 45.7862 3.35327 45.7862H3.79065V36.4852H1.30093V37.4288C1.30093 37.6759 1.18878 37.8669 0.975692 37.9792C0.762609 38.0915 0.549534 38.0915 0.336451 37.9792C0.123367 37.8669 0 37.6759 0 37.4288V35.8449C0 35.6764 0.0560787 35.5303 0.179443 35.3956C0.302807 35.2608 0.459813 35.2046 0.650467 35.2046H8.23174C8.39997 35.2046 8.54577 35.2608 8.68035 35.3843C8.80371 35.5079 8.871 35.6539 8.871 35.8449Z" fill="#F8F8F8"/>
<path d="M21.1179 36.1594C21.0057 36.3616 20.8151 36.4739 20.5571 36.4739H20.0413L18.5048 46.7635C18.4712 46.9994 18.3254 47.1679 18.0899 47.2465C17.9889 47.2802 17.9104 47.2915 17.8656 47.2915C17.4394 47.2915 17.2936 47.0331 17.2375 46.8309L15.7011 41.7648L14.1646 46.8422C14.0749 47.078 13.9179 47.2241 13.6936 47.269C13.6712 47.2915 13.6151 47.2915 13.5478 47.2915C13.2114 47.2915 12.9871 47.1117 12.8974 46.7635L11.3385 36.4852H10.8226C10.5646 36.4852 10.374 36.3728 10.2618 36.1706C10.1497 35.9572 10.1497 35.7438 10.2618 35.5416C10.374 35.3282 10.5646 35.2158 10.8226 35.2158H12.9871C13.245 35.2158 13.4357 35.3282 13.5478 35.5416C13.66 35.7438 13.66 35.9572 13.5478 36.1706C13.4357 36.3728 13.245 36.4852 12.9871 36.4852H12.6506L13.7273 43.7306L15.0618 39.3721C15.1067 39.1699 15.2637 38.9115 15.6899 38.9115C15.746 38.9115 15.8245 38.9228 15.9142 38.9565C16.1048 39.0463 16.2394 39.1811 16.3067 39.3609L17.6413 43.7306L18.7179 36.4852H18.3814C18.1235 36.4852 17.9329 36.3728 17.8207 36.1706C17.7086 35.9572 17.7086 35.7438 17.8207 35.5416C17.9329 35.3282 18.1235 35.2158 18.3814 35.2158H20.5459C20.8039 35.2158 20.9945 35.3282 21.1067 35.5416C21.23 35.7438 21.23 35.9572 21.1179 36.1594Z" fill="#F8F8F8"/>
<path d="M29.6742 46.1008C29.7864 46.303 29.7864 46.5164 29.6742 46.7298C29.5621 46.932 29.3714 47.0444 29.1135 47.0444H24.7845C24.5266 47.0444 24.3359 46.932 24.2238 46.7298C24.1116 46.5164 24.1116 46.303 24.2238 46.1008C24.3359 45.8873 24.5266 45.775 24.7845 45.775H26.2985V36.4739H24.7845C24.5266 36.4739 24.3359 36.3616 24.2238 36.1594C24.1116 35.946 24.1116 35.7326 24.2238 35.5304C24.3359 35.3169 24.5266 35.2046 24.7845 35.2046H29.1135C29.3714 35.2046 29.5621 35.3169 29.6742 35.5304C29.7864 35.7326 29.7864 35.946 29.6742 36.1594C29.5621 36.3616 29.3714 36.4739 29.1135 36.4739H27.5994V45.775H29.1135C29.3602 45.775 29.5621 45.8873 29.6742 46.1008Z" fill="#F8F8F8"/>
<path d="M43.0876 36.1594C42.9755 36.3616 42.7848 36.4739 42.5269 36.4739H42.0895V46.4041C42.0895 46.6287 41.9998 46.7972 41.8316 46.9096C41.697 46.9994 41.5736 47.0331 41.4503 47.0331C41.2035 47.0331 41.0241 46.932 40.9007 46.7298L35.6073 38.114V45.7638H36.0447C36.3026 45.7638 36.4933 45.8761 36.6054 46.0895C36.7176 46.2917 36.7176 46.5052 36.6054 46.7186C36.4933 46.9208 36.3026 47.0331 36.0447 47.0331H33.8802C33.6223 47.0331 33.4316 46.9208 33.3195 46.7186C33.2073 46.5052 33.2073 46.2917 33.3195 46.0895C33.4316 45.8761 33.6223 45.7638 33.8802 45.7638H34.3176V36.4627H33.8802C33.6223 36.4627 33.4316 36.3504 33.3195 36.1482C33.2073 35.9347 33.2073 35.7213 33.3195 35.5191C33.4316 35.3057 33.6223 35.1934 33.8802 35.1934H34.9568C35.0353 35.1934 35.1026 35.2046 35.1587 35.2158C35.3045 35.272 35.4166 35.3619 35.4951 35.4967L40.7886 44.1125V36.4627H40.3624C40.1045 36.4627 39.9138 36.3504 39.8017 36.1482C39.6895 35.9347 39.6895 35.7213 39.8017 35.5191C39.9138 35.3057 40.1045 35.1934 40.3624 35.1934H42.5269C42.7848 35.1934 42.9755 35.3057 43.0876 35.5191C43.1998 35.7438 43.1998 35.9572 43.0876 36.1594Z" fill="#F8F8F8"/>
<path d="M53.8654 43.8991C53.8654 44.5843 53.6187 45.1909 53.1476 45.7076C52.2729 46.595 51.028 47.0556 49.4355 47.0556C48.5944 47.0556 47.7981 46.8085 47.0467 46.3479C46.3065 45.8761 45.7009 45.2358 45.2523 44.4495C45.1963 44.3596 45.1738 44.2585 45.1738 44.135C45.1738 43.8878 45.286 43.6969 45.4878 43.5733C45.6 43.5171 45.7121 43.4947 45.8243 43.4947C46.071 43.4947 46.2505 43.5958 46.3738 43.798C46.7439 44.4158 47.1925 44.8988 47.7308 45.247C48.2691 45.5953 48.8411 45.7638 49.4355 45.7638C50.3327 45.7638 51.0953 45.584 51.7009 45.2246C52.2953 44.8651 52.5757 44.427 52.5757 43.8878C52.5757 43.1464 52.3177 42.5848 51.7906 42.1916C51.5888 42.0007 51.2074 41.8209 50.6355 41.6412C49.8168 41.3828 49.3682 41.2368 49.2336 41.1919L48.5159 40.9784C47.6187 40.6864 47.0579 40.4842 46.7888 40.3606C45.8355 39.8664 45.3196 39.1025 45.2523 38.0915C45.2523 37.0918 45.6561 36.3504 46.4636 35.8786C47.2486 35.418 48.2131 35.1934 49.3458 35.1934H49.4355C50.4561 35.1934 51.3533 35.4854 52.1047 36.0583C52.2168 35.946 52.3626 35.8898 52.5532 35.8898C52.7215 35.8898 52.8785 35.9572 53.0018 36.0808C53.1364 36.2043 53.1925 36.3616 53.1925 36.5301V38.114C53.1925 38.3611 53.0803 38.5521 52.8673 38.6644C52.6542 38.7767 52.4411 38.7767 52.228 38.6644C52.0149 38.5521 51.8916 38.3723 51.8916 38.114V37.631C51.5103 37.1929 51.1402 36.8896 50.8037 36.7211C50.4561 36.5526 49.9962 36.4627 49.4243 36.4627H49.3121C48.4262 36.4627 47.7308 36.6087 47.2486 36.8896C46.7776 37.1704 46.542 37.5636 46.542 38.0803C46.542 38.4847 46.8336 38.8666 47.4168 39.2148L47.6972 39.3272C47.8205 39.3721 47.9551 39.417 48.1009 39.4732C48.2579 39.5294 48.3589 39.5631 48.4262 39.5968L48.9532 39.7653C49.2673 39.8776 49.4916 39.9338 49.6149 39.9675L50.2542 40.1809C50.7813 40.3157 51.3084 40.5066 51.8018 40.7313C52.2841 40.9335 52.7663 41.3042 53.2261 41.8434C53.6523 42.3152 53.8654 43.0116 53.8654 43.8991Z" fill="#F8F8F8"/>
<path d="M128.298 36.4177C128.186 36.6311 127.995 36.7435 127.737 36.7435H127.02L124.059 41.5737V46.0445H124.496C124.754 46.0445 124.945 46.1569 125.057 46.3591C125.169 46.5725 125.169 46.7859 125.057 46.9881C124.945 47.2016 124.754 47.3139 124.496 47.3139H122.332C122.074 47.3139 121.883 47.2016 121.771 46.9881C121.659 46.7859 121.659 46.5725 121.771 46.3591C121.883 46.1456 122.074 46.0333 122.332 46.0333H122.758V41.5625L119.797 36.7322H119.079C118.821 36.7322 118.631 36.6199 118.519 36.4065C118.407 36.2043 118.407 35.9908 118.519 35.7774C118.631 35.5752 118.821 35.4629 119.079 35.4629H121.244C121.502 35.4629 121.692 35.5752 121.805 35.7774C121.917 35.9908 121.917 36.2043 121.805 36.4065C121.704 36.5974 121.535 36.7098 121.311 36.721L123.408 40.1359L125.506 36.721C125.281 36.7098 125.113 36.5974 125.001 36.4065C124.889 36.2043 124.889 35.9908 125.001 35.7774C125.113 35.5752 125.304 35.4629 125.562 35.4629H127.726C127.984 35.4629 128.175 35.5752 128.287 35.7774C128.41 35.9908 128.41 36.2043 128.298 36.4177Z" fill="#F8F8F8"/>
<path d="M116.601 36.1032V37.6871C116.601 37.9342 116.489 38.1252 116.265 38.2375C116.051 38.3498 115.838 38.3498 115.625 38.2375C115.412 38.1252 115.3 37.9342 115.3 37.6871V36.7435H112.81V46.0445H113.236C113.494 46.0445 113.685 46.1569 113.797 46.3591C113.909 46.5725 113.909 46.7859 113.797 46.9881C113.685 47.2016 113.494 47.3139 113.236 47.3139H111.072C110.814 47.3139 110.623 47.2016 110.511 46.9881C110.399 46.7859 110.399 46.5725 110.511 46.3591C110.623 46.1456 110.814 46.0333 111.072 46.0333H111.498V36.7322H109.008V37.6758C109.008 37.923 108.896 38.1139 108.683 38.2263C108.47 38.3386 108.257 38.3274 108.044 38.2263C107.831 38.1139 107.719 37.923 107.719 37.6758V36.092C107.719 35.9235 107.775 35.7774 107.898 35.6426C108.022 35.5191 108.179 35.4517 108.358 35.4517H115.939C116.108 35.4517 116.265 35.5078 116.388 35.6314C116.522 35.755 116.601 35.9122 116.601 36.1032Z" fill="#F8F8F8"/>
<path d="M105.79 36.4177C105.678 36.6311 105.487 36.7435 105.23 36.7435H104.792V43.5058C104.792 44.5505 104.4 45.4604 103.637 46.2018C102.886 46.9432 101.966 47.3139 100.901 47.3139C99.8352 47.3139 98.9155 46.9432 98.1417 46.2018C97.3903 45.4379 97.009 44.5281 97.009 43.5058V36.7435H96.5716C96.3137 36.7435 96.123 36.6311 96.0109 36.4177C95.8987 36.2155 95.8987 36.0021 96.0109 35.7886C96.123 35.5865 96.3137 35.4741 96.5716 35.4741H98.7361C98.994 35.4741 99.1847 35.5865 99.2968 35.7886C99.409 36.0021 99.409 36.2155 99.2968 36.4177C99.1847 36.6311 98.994 36.7435 98.7361 36.7435H98.3099V43.5058C98.3099 44.1911 98.5679 44.7864 99.0725 45.2919C99.5884 45.7862 100.194 46.0445 100.901 46.0445C101.607 46.0445 102.224 45.7862 102.729 45.2919C103.233 44.7864 103.491 44.1911 103.491 43.5058V36.7435H103.054C102.796 36.7435 102.605 36.6311 102.493 36.4177C102.381 36.2155 102.381 36.0021 102.493 35.7886C102.605 35.5865 102.796 35.4741 103.054 35.4741H105.218C105.476 35.4741 105.667 35.5865 105.779 35.7886C105.902 35.9908 105.902 36.2043 105.79 36.4177Z" fill="#F8F8F8"/>
<path d="M94.5412 46.3591C94.4291 46.1569 94.2384 46.0446 93.9805 46.0446H93.3861L90.2683 35.6876C90.2235 35.4742 90.0777 35.2271 89.6403 35.2271C89.5842 35.2271 89.5169 35.2383 89.3936 35.2832C89.2029 35.3618 89.0796 35.4966 89.0123 35.6876L85.8945 46.0558H85.3001C85.0422 46.0558 84.8515 46.1682 84.7394 46.3704C84.6272 46.5838 84.6272 46.7972 84.7394 46.9994C84.8515 47.2128 85.0422 47.3252 85.3001 47.3252H87.4646C87.7226 47.3252 87.9132 47.2128 88.0254 47.0106C88.1375 46.7972 88.1375 46.5838 88.0254 46.3816C87.9132 46.1794 87.7226 46.0671 87.4646 46.0671H87.2403L87.9805 43.6407H91.2777L92.0179 46.0671H91.7936C91.5356 46.0671 91.345 46.1794 91.2328 46.3816C91.1207 46.595 91.1207 46.8085 91.2328 47.0106C91.345 47.2241 91.5356 47.3364 91.7936 47.3364H93.958C94.216 47.3364 94.4066 47.2241 94.5188 47.0219C94.6534 46.7748 94.6534 46.5613 94.5412 46.3591ZM90.9076 42.3376H88.3842L89.6515 38.114L90.9076 42.3376Z" fill="#F8F8F8"/>
<path d="M81.5322 37.6871V36.7435H76.3285V40.7537H78.8182V40.3269C78.8182 40.0797 78.9304 39.8888 79.1435 39.7764C79.3565 39.6641 79.5696 39.6641 79.7827 39.7764C79.9958 39.8888 80.1192 40.0685 80.1192 40.3269V42.4387C80.1192 42.6971 80.007 42.888 79.7827 42.9891C79.5696 43.1014 79.3565 43.1014 79.1435 42.9891C78.9304 42.8768 78.8182 42.6971 78.8182 42.4387V42.0231H76.3285V46.0333H81.5322V45.0897C81.5322 44.8426 81.6444 44.6516 81.8575 44.5393C82.0706 44.427 82.2836 44.427 82.4967 44.5393C82.7098 44.6516 82.8332 44.8426 82.8332 45.0897V46.6736C82.8332 46.8646 82.7659 47.0218 82.6313 47.1342C82.4967 47.2465 82.3509 47.3139 82.1827 47.3139H74.6126C74.3547 47.3139 74.164 47.2016 74.0519 46.9881C73.9397 46.7859 73.9397 46.5725 74.0519 46.3591C74.164 46.1456 74.3547 46.0333 74.6126 46.0333H75.0388V36.7322H74.6126C74.3547 36.7322 74.164 36.6199 74.0519 36.4065C73.9397 36.2043 73.9397 35.9908 74.0519 35.7774C74.164 35.5752 74.3547 35.4629 74.6126 35.4629H82.1827C82.3509 35.4629 82.5079 35.5191 82.6313 35.6426C82.7659 35.7549 82.8332 35.9122 82.8332 36.1032V37.6871C82.8332 37.9342 82.721 38.1252 82.4967 38.2375C82.2836 38.3498 82.0706 38.3498 81.8575 38.2375C81.6444 38.1252 81.5322 37.9342 81.5322 37.6871Z" fill="#F8F8F8"/>
<path d="M69.4874 40.6414C70.1603 40.1134 70.4968 39.3608 70.4968 38.3947C70.4968 37.0243 69.8127 36.1369 68.4669 35.755C67.8837 35.564 67.065 35.4741 66.0556 35.4741H63.3529C63.0949 35.4741 62.9043 35.5865 62.7921 35.7886C62.68 36.0021 62.68 36.2155 62.7921 36.4177C62.9043 36.6311 63.0949 36.7435 63.3529 36.7435H63.779V46.0445H63.3529C63.0949 46.0445 62.9043 46.1569 62.7921 46.3591C62.68 46.5725 62.68 46.7859 62.7921 46.9881C62.9043 47.2016 63.0949 47.3139 63.3529 47.3139H67.1435C68.3547 47.3139 69.4089 46.9994 70.2612 46.3815C71.136 45.7412 71.5846 44.8313 71.5846 43.6743C71.5734 42.214 70.8781 41.1918 69.4874 40.6414ZM66.0556 36.7435C67.222 36.7435 68.0631 36.8558 68.5229 37.0917C68.9715 37.3164 69.1846 37.7432 69.1846 38.3947C69.1846 39.0687 68.9491 39.5181 68.4556 39.7989C67.951 40.0797 67.1435 40.2257 66.0444 40.2257H65.0687V36.7435H66.0556ZM69.4426 45.4042C68.8818 45.8199 68.108 46.0333 67.1435 46.0333H65.08V41.4951H67.1435C69.2519 41.4951 70.2837 42.2028 70.2837 43.6743C70.2837 44.427 70.0033 44.9998 69.4426 45.4042Z" fill="#F8F8F8"/>
<path d="M169.11 36.4177C168.998 36.6311 168.807 36.7435 168.549 36.7435H168.112V43.5058C168.112 44.5505 167.719 45.4604 166.957 46.2018C166.205 46.9432 165.286 47.3139 164.22 47.3139C163.155 47.3139 162.224 46.9432 161.462 46.2018C160.71 45.4379 160.329 44.5281 160.329 43.5058V36.7435H159.903C159.645 36.7435 159.454 36.6311 159.342 36.4177C159.23 36.2155 159.23 36.0021 159.342 35.7886C159.454 35.5865 159.645 35.4741 159.903 35.4741H162.067C162.325 35.4741 162.516 35.5865 162.628 35.7886C162.74 36.0021 162.74 36.2155 162.628 36.4177C162.516 36.6311 162.325 36.7435 162.067 36.7435H161.619V43.5058C161.619 44.1911 161.876 44.7864 162.392 45.2919C162.897 45.7862 163.514 46.0445 164.22 46.0445C164.927 46.0445 165.544 45.7862 166.048 45.2919C166.564 44.7864 166.822 44.1911 166.822 43.5058V36.7435H166.385C166.127 36.7435 165.936 36.6311 165.824 36.4177C165.712 36.2155 165.712 36.0021 165.824 35.7886C165.936 35.5865 166.127 35.4741 166.385 35.4741H168.549C168.807 35.4741 168.998 35.5865 169.11 35.7886C169.222 35.9908 169.211 36.2043 169.11 36.4177Z" fill="#F8F8F8"/>
<path d="M189.869 37.6871V36.7435H184.677V40.7537H187.166V40.3269C187.166 40.0797 187.278 39.8888 187.503 39.7764C187.716 39.6641 187.929 39.6641 188.142 39.7764C188.355 39.8888 188.467 40.0685 188.467 40.3269V42.4387C188.467 42.6971 188.355 42.888 188.142 42.9891C187.929 43.1014 187.716 43.1014 187.503 42.9891C187.29 42.8768 187.166 42.6971 187.166 42.4387V42.0231H184.677V46.0333H189.869V45.0897C189.869 44.8426 189.981 44.6516 190.206 44.5393C190.419 44.427 190.632 44.427 190.845 44.5393C191.058 44.6516 191.181 44.8426 191.181 45.0897V46.6736C191.181 46.8646 191.114 47.0218 190.979 47.1342C190.845 47.2465 190.699 47.3139 190.531 47.3139H182.95C182.692 47.3139 182.501 47.2016 182.389 46.9881C182.277 46.7859 182.277 46.5725 182.389 46.3591C182.501 46.1456 182.692 46.0333 182.95 46.0333H183.387V36.7322H182.95C182.692 36.7322 182.501 36.6199 182.389 36.4065C182.277 36.2043 182.277 35.9908 182.389 35.7774C182.501 35.5752 182.692 35.4629 182.95 35.4629H190.531C190.699 35.4629 190.856 35.5191 190.979 35.6426C191.114 35.7549 191.181 35.9122 191.181 36.1032V37.6871C191.181 37.9342 191.069 38.1252 190.845 38.2375C190.632 38.3498 190.419 38.3498 190.206 38.2375C189.981 38.1252 189.869 37.9342 189.869 37.6871Z" fill="#F8F8F8"/>
<path d="M179.888 44.1574C179.888 44.8426 179.641 45.4604 179.159 45.9659C178.284 46.8533 177.039 47.3139 175.447 47.3139C174.606 47.3139 173.809 47.0668 173.058 46.595C172.318 46.1232 171.712 45.4829 171.252 44.6966C171.196 44.6067 171.174 44.5056 171.174 44.382C171.174 44.1349 171.286 43.9439 171.488 43.8204C171.6 43.7642 171.701 43.7417 171.824 43.7417C172.071 43.7417 172.25 43.8428 172.374 44.045C172.744 44.6629 173.193 45.1459 173.742 45.4941C174.28 45.8423 174.852 46.0108 175.447 46.0108C176.344 46.0108 177.107 45.8311 177.701 45.4716C178.295 45.1122 178.576 44.6741 178.576 44.1349C178.576 43.3935 178.318 42.8319 177.791 42.4499C177.589 42.259 177.207 42.068 176.636 41.8883C175.839 41.6411 175.368 41.4839 175.222 41.4502L174.505 41.2367C173.63 40.9559 173.047 40.7537 172.778 40.6189C171.813 40.1247 171.308 39.3608 171.241 38.3498C171.241 37.3501 171.645 36.6087 172.452 36.1369C173.237 35.6763 174.202 35.4517 175.335 35.4517H175.424C176.445 35.4517 177.342 35.7437 178.093 36.3166C178.206 36.2043 178.363 36.1481 178.542 36.1481C178.71 36.1481 178.867 36.2043 179.002 36.3391C179.136 36.4739 179.193 36.6199 179.193 36.7884V38.3723C179.193 38.6194 179.08 38.8104 178.856 38.9227C178.643 39.035 178.43 39.035 178.217 38.9227C178.004 38.8104 177.892 38.6306 177.892 38.3723V37.878C177.51 37.4512 177.14 37.1366 176.804 36.9794C176.456 36.8109 175.996 36.721 175.424 36.721H175.312C174.426 36.721 173.731 36.867 173.249 37.1479C172.778 37.4287 172.542 37.8219 172.542 38.3498C172.542 38.7542 172.845 39.1361 173.417 39.4844L173.697 39.5967C173.821 39.6416 173.955 39.6866 174.101 39.7427C174.258 39.7989 174.37 39.8326 174.426 39.8663L174.953 40.046C175.267 40.1471 175.492 40.2145 175.615 40.2482L176.254 40.4617C176.781 40.5965 177.308 40.7874 177.802 41.0121C178.284 41.2143 178.766 41.585 179.226 42.1129C179.675 42.5735 179.888 43.2587 179.888 44.1574Z" fill="#F8F8F8"/>
<path d="M156.09 36.7435C155.215 35.901 154.172 35.4629 152.961 35.4629C151.749 35.4629 150.695 35.8898 149.832 36.7435C148.957 37.5972 148.52 38.6194 148.52 39.7989V42.9667C148.52 44.1461 148.957 45.1796 149.832 46.0221C150.695 46.8646 151.749 47.3027 152.961 47.3027C154.172 47.3027 155.215 46.8758 156.09 46.0221C156.953 45.1684 157.402 44.1461 157.402 42.9667V39.7989C157.402 38.6194 156.953 37.5972 156.09 36.7435ZM152.961 46.0333C152.12 46.0333 151.379 45.73 150.74 45.1347C150.123 44.5056 149.82 43.7754 149.82 42.9667V39.7989C149.82 38.9789 150.134 38.2487 150.74 37.6534C151.368 37.0468 152.12 36.7322 152.961 36.7322C153.813 36.7322 154.553 37.0468 155.159 37.6534C155.787 38.2375 156.101 38.9564 156.101 39.7877V42.9554C156.101 43.7754 155.787 44.5056 155.159 45.1234C154.553 45.73 153.813 46.0333 152.961 46.0333Z" fill="#F8F8F8"/>
<path d="M146.602 46.3591C146.714 46.5725 146.714 46.7859 146.602 46.9881C146.49 47.1903 146.299 47.3027 146.041 47.3027H143.877C143.619 47.3027 143.428 47.1903 143.316 46.9769C143.204 46.7747 143.204 46.5613 143.316 46.3478C143.428 46.1456 143.619 46.0333 143.877 46.0333H144.314V42.0231H139.11V46.0333H139.548C139.806 46.0333 139.996 46.1456 140.108 46.3478C140.221 46.5613 140.221 46.7747 140.108 46.9769C139.996 47.1791 139.806 47.2914 139.548 47.2914H137.383C137.125 47.2914 136.935 47.1791 136.822 46.9657C136.71 46.7635 136.71 46.55 136.822 46.3366C136.935 46.1344 137.125 46.0221 137.383 46.0221H137.809V36.721H137.383C137.125 36.721 136.935 36.6087 136.822 36.3953C136.71 36.1931 136.71 35.9796 136.822 35.7662C136.935 35.564 137.125 35.4517 137.383 35.4517H139.548C139.806 35.4517 139.996 35.564 140.108 35.7662C140.221 35.9796 140.221 36.1931 140.108 36.3953C139.996 36.6087 139.806 36.721 139.548 36.721H139.11V40.7312H144.314V36.721H143.877C143.619 36.721 143.428 36.6087 143.316 36.3953C143.204 36.1931 143.204 35.9796 143.316 35.7662C143.428 35.564 143.619 35.4517 143.877 35.4517H146.041C146.299 35.4517 146.49 35.564 146.602 35.7662C146.714 35.9796 146.714 36.1931 146.602 36.3953C146.49 36.6087 146.299 36.721 146.041 36.721H145.604V46.0221H146.041C146.299 46.0333 146.49 46.1456 146.602 46.3591Z" fill="#F8F8F8"/>
<path d="M79.9624 60.5691H77.3494V62.6472H80.254V63.2763H76.4746V57.5137H80.097V58.1427H77.3382V59.9625H79.9512V60.5691H79.9624Z" fill="#F8F8F8"/>
<path d="M81.3083 62.3664C81.7008 62.5686 82.2615 62.7371 82.8672 62.7371C83.7531 62.7371 84.269 62.3327 84.269 61.7486C84.269 61.2094 83.9101 60.9061 83.0017 60.6028C81.9027 60.2658 81.2298 59.7828 81.2298 58.974C81.2298 58.0754 82.0933 57.4126 83.4055 57.4126C84.0896 57.4126 84.5943 57.5474 84.8858 57.6934L84.6503 58.3C84.426 58.1989 83.9774 58.0304 83.3718 58.0304C82.4522 58.0304 82.1045 58.5022 82.1045 58.8954C82.1045 59.4346 82.5083 59.7042 83.4391 60.0075C84.5718 60.3782 85.155 60.8499 85.155 61.7037C85.155 62.5911 84.3924 63.3662 82.7999 63.3662C82.1494 63.3662 81.4429 63.2089 81.084 62.9955L81.3083 62.3664Z" fill="#F8F8F8"/>
<path d="M87.6671 58.1427H85.626V57.5137H90.5942V58.1427H88.5418V63.2763H87.6671V58.1427Z" fill="#F8F8F8"/>
<path d="M90.5605 62.8268C90.5605 62.5123 90.8073 62.2876 91.1549 62.2876C91.5026 62.2876 91.7381 62.5123 91.7381 62.8268C91.7381 63.1301 91.5138 63.366 91.1437 63.366C90.7961 63.366 90.5605 63.1301 90.5605 62.8268Z" fill="#F8F8F8"/>
<path d="M94.7549 63.2763V62.8157L95.439 62.2428C97.0876 60.8948 97.839 60.1759 97.8502 59.3334C97.8502 58.7718 97.5362 58.2438 96.5605 58.2438C95.9773 58.2438 95.4838 58.5022 95.181 58.7156L94.9007 58.1876C95.3493 57.8619 95.9885 57.626 96.7287 57.626C98.1194 57.626 98.7137 58.446 98.7137 59.2436C98.7137 60.2658 97.8502 61.097 96.482 62.2316L95.9661 62.6472V62.6697H98.8708V63.2987H94.7549V63.2763Z" fill="#F8F8F8"/>
<path d="M104.22 60.4344C104.22 62.3215 103.402 63.3662 101.966 63.3662C100.699 63.3662 99.8466 62.344 99.8242 60.513C99.8242 58.6483 100.755 57.6261 102.078 57.6261C103.447 57.6148 104.22 58.6595 104.22 60.4344ZM100.71 60.5242C100.71 61.9733 101.226 62.7933 102.022 62.7933C102.92 62.7933 103.346 61.8947 103.346 60.4793C103.346 59.1088 102.942 58.2102 102.034 58.2102C101.26 58.199 100.71 59.0077 100.71 60.5242Z" fill="#F8F8F8"/>
<path d="M106.979 58.4123H106.957L105.835 58.929L105.667 58.3561L107.08 57.7046H107.831V63.265H106.979V58.4123Z" fill="#F8F8F8"/>
<path d="M112.945 63.2762V61.7598H109.939V61.2655L112.833 57.7158H113.775V61.1756H114.683V61.771H113.775V63.2875H112.945V63.2762ZM112.945 61.1644V59.3109C112.945 59.0189 112.956 58.7268 112.979 58.4347H112.945C112.743 58.7605 112.586 58.9964 112.407 59.2548L110.825 61.1419V61.1644H112.945Z" fill="#F8F8F8"/>
<path d="M101.36 25.376H89.7979V26.005H101.36V25.376Z" fill="#F8F8F8"/>
<path d="M91.2671 2.59473C91.2671 2.5835 91.2559 2.5835 91.2559 2.57227C91.2559 2.5835 91.2559 2.5835 91.2671 2.59473Z" fill="#F8F8F8"/>
<path d="M106.351 12.3453C106.351 13.0305 106.105 13.6371 105.623 14.1538C104.748 15.0412 103.503 15.4905 101.91 15.4905C101.069 15.4905 100.273 15.2547 99.5216 14.7829C99.4655 14.7492 99.1964 14.5807 98.8936 14.3111C98.8936 14.3111 98.0973 13.6146 97.6824 12.7833C97.6487 12.7272 97.6263 12.6486 97.6263 12.6486C97.5814 12.5475 97.5253 12.4351 97.4693 12.2891C97.3908 12.0981 97.3459 11.9521 97.3123 11.8285H96.2356V14.7604H96.7403C97.0655 14.7604 97.3347 15.03 97.3347 15.3557V15.4681C97.3347 15.7938 97.0655 16.0634 96.7403 16.0634H94.4188C94.0936 16.0634 93.8244 15.7938 93.8244 15.4681V15.3557C93.8244 15.03 94.0936 14.7604 94.4188 14.7604H94.9235V11.8285H93.8469C93.8132 11.9521 93.7571 12.1094 93.6898 12.2891C93.6338 12.4239 93.5777 12.5475 93.5328 12.6486C93.5328 12.6486 93.4992 12.716 93.4768 12.7833C93.0618 13.6146 92.2655 14.3111 92.2655 14.3111C91.9627 14.5807 91.6936 14.7379 91.6375 14.7829C90.8973 15.2547 90.0898 15.4905 89.2487 15.4905C87.6562 15.4905 86.4114 15.0412 85.5366 14.1538C85.0544 13.6371 84.8076 13.0305 84.8076 12.3453C84.8076 11.4466 85.0656 10.7951 85.4469 10.3008C85.8843 9.72793 86.3777 9.40217 86.8712 9.19997C87.3646 8.97531 87.8917 8.78434 88.4188 8.63831C89.1702 8.41365 89.5291 8.29008 89.7085 8.23392C89.7871 8.21145 89.9441 8.15528 90.1459 8.08788C90.3478 8.02048 90.3926 8.00925 90.5609 7.94185C90.7964 7.86322 90.931 7.80705 90.9646 7.79582C91.0992 7.73966 91.2225 7.69472 91.2562 7.68349C91.5029 7.57116 92.0749 7.17799 92.1197 6.56017C92.1422 6.24564 92.0188 5.99851 91.9739 5.91988C91.8618 5.69522 91.6711 5.51549 91.4132 5.36946C90.931 5.08863 90.2356 4.94259 89.3497 4.94259H89.2375C88.6656 4.94259 88.2057 5.03246 87.8581 5.20096C87.4656 5.38069 87.1852 5.59412 86.7702 6.11085V6.59387C86.7702 6.841 86.6581 7.03196 86.445 7.1443C86.2319 7.24539 86.0188 7.24539 85.8057 7.1443C85.5927 7.03196 85.4805 6.841 85.4805 6.59387V5.00999C85.4805 4.8415 85.5478 4.69546 85.6712 4.56067C85.7945 4.42587 85.9515 4.3697 86.131 4.3697C86.3104 4.3697 86.4674 4.42587 86.5796 4.5382C87.331 3.96531 88.2282 3.67324 89.2487 3.67324H89.3385C90.4712 3.67324 91.4356 3.90914 92.2207 4.3697C93.0169 4.83026 93.4319 5.58289 93.4319 6.57141C93.3758 7.58239 92.8599 8.34625 91.9067 8.84051C91.6375 8.97531 91.0768 9.1775 90.1796 9.45833L89.4618 9.67176C88.9123 9.82902 88.4412 9.98629 88.0487 10.1211C87.4656 10.3233 87.1964 10.4244 86.9048 10.6603C86.7702 10.7614 86.5796 10.9186 86.4114 11.1882C86.0861 11.705 86.0973 12.2105 86.1198 12.3565C86.1758 12.9069 86.4001 13.3338 86.9945 13.6932C87.6001 14.0527 88.3515 14.2324 89.2599 14.2324C89.8543 14.2324 90.4263 14.0639 90.9646 13.7157C91.144 13.6034 91.3011 13.4686 91.4581 13.3338C92.0637 12.7946 92.4225 12.0981 92.5347 11.6039C92.5683 11.4466 92.5908 11.3455 92.6581 11.1658C92.6917 11.0647 92.7366 10.9411 92.8263 10.8288C92.8487 10.7951 92.8824 10.7501 92.9384 10.7164C93.0394 10.6378 93.1852 10.5929 93.3422 10.5929H94.9459V1.29181H92.4562V2.2354C92.4562 2.2691 92.4562 2.29157 92.4562 2.32527C92.4562 2.3365 92.4562 2.35896 92.445 2.3702C92.445 2.38143 92.445 2.39267 92.4338 2.4039C92.4338 2.41513 92.4226 2.42636 92.4226 2.44883C92.4226 2.46006 92.4113 2.4713 92.4113 2.48253C92.4113 2.49376 92.4001 2.51623 92.3889 2.52746C92.3889 2.5387 92.3777 2.54993 92.3665 2.56116C92.3553 2.5724 92.3553 2.58363 92.344 2.59486C92.3328 2.60609 92.3328 2.61733 92.3216 2.62856C92.3104 2.63979 92.2992 2.65103 92.2992 2.66226C92.288 2.67349 92.2768 2.68473 92.2655 2.69596C92.2543 2.70719 92.2431 2.71843 92.2319 2.71843C92.2095 2.74089 92.187 2.75213 92.1646 2.76336C92.1422 2.77459 92.1085 2.79706 92.0861 2.80829C92.0749 2.80829 92.0637 2.81953 92.0525 2.81953C91.8954 2.87569 91.7272 2.87569 91.5702 2.81953H91.559C91.559 2.81953 91.5478 2.81953 91.5478 2.80829C91.5478 2.80829 91.5366 2.80829 91.5366 2.79706C91.5254 2.79706 91.5141 2.78583 91.5141 2.78583H91.5029H91.4917C91.4805 2.77459 91.4581 2.76336 91.4468 2.76336C91.4356 2.75213 91.4244 2.74089 91.402 2.74089C91.3908 2.72966 91.3684 2.71843 91.3571 2.7072C91.3459 2.69596 91.3347 2.69596 91.3347 2.68473L91.3235 2.67349C91.3235 2.67349 91.3235 2.67349 91.3123 2.66226C91.3011 2.65103 91.2898 2.63979 91.2898 2.62856C91.2898 2.62856 91.2898 2.62856 91.2898 2.61733L91.2786 2.6061L91.2674 2.59486C91.2562 2.58363 91.2562 2.5724 91.245 2.56116C91.2338 2.5387 91.2225 2.52746 91.2225 2.505C91.2225 2.49376 91.2113 2.48253 91.2113 2.4713C91.2001 2.44883 91.2001 2.42636 91.1889 2.39266C91.1777 2.34773 91.1777 2.3028 91.1777 2.24663V0.640291C91.1777 0.471793 91.2338 0.32576 91.3571 0.190962C91.3684 0.179729 91.3908 0.157264 91.3908 0.157264C91.3908 0.157264 91.4132 0.146028 91.4244 0.123561C91.4469 0.112328 91.4805 0.0898645 91.5254 0.056165C91.5366 0.056165 91.559 0.0449313 91.5814 0.0336982C91.5814 0.0336982 91.6599 0 91.7497 0C91.7721 0 91.7945 0 91.8169 0H99.387C99.4094 0 99.4319 0 99.4543 0C99.544 0.0112332 99.6225 0.0336982 99.6225 0.0336982C99.6562 0.0449313 99.6674 0.056165 99.6786 0.056165C99.7235 0.0786314 99.7683 0.112328 99.7795 0.123561C99.802 0.134795 99.8132 0.146031 99.8132 0.157264C99.8132 0.157264 99.8244 0.168496 99.8468 0.190962C99.9702 0.314527 100.026 0.471793 100.026 0.640291V2.22417C100.026 2.2691 100.026 2.32526 100.015 2.3702C100.015 2.39266 100.004 2.42636 99.9926 2.44883C99.9926 2.46006 99.9814 2.4713 99.9814 2.48253C99.9702 2.49376 99.9702 2.51623 99.959 2.52746C99.959 2.52746 99.959 2.52746 99.959 2.5387C99.9478 2.54993 99.9478 2.56116 99.9365 2.57239C99.9253 2.58363 99.9141 2.59486 99.9141 2.6061C99.9029 2.61733 99.8917 2.62856 99.8917 2.63979C99.8917 2.63979 99.8917 2.63979 99.8805 2.65103L99.8693 2.66226C99.858 2.67349 99.858 2.67349 99.8468 2.68473C99.8356 2.69596 99.8244 2.70719 99.802 2.71843C99.7908 2.72966 99.7795 2.74089 99.7571 2.74089C99.7459 2.75213 99.7235 2.76336 99.7122 2.76336H99.701H99.6898C99.6786 2.76336 99.6674 2.77459 99.6674 2.77459C99.6674 2.77459 99.6562 2.77459 99.6562 2.78583C99.6562 2.78583 99.645 2.78583 99.645 2.79706H99.6337C99.4767 2.85322 99.3085 2.85322 99.1515 2.79706C99.1403 2.79706 99.1291 2.78583 99.1179 2.78583C99.0954 2.77459 99.0618 2.76336 99.0393 2.74089C99.0169 2.72966 98.9945 2.70719 98.9721 2.69596C98.9608 2.68473 98.9496 2.67349 98.9384 2.67349C98.9272 2.66226 98.916 2.65103 98.9048 2.63979C98.8936 2.62856 98.8823 2.61733 98.8823 2.6061C98.8711 2.59486 98.8599 2.58363 98.8599 2.57239C98.8487 2.56116 98.8487 2.54993 98.8375 2.5387C98.8375 2.52746 98.8263 2.51623 98.8151 2.505C98.8038 2.49376 98.8038 2.48253 98.7926 2.46006C98.7926 2.44883 98.7814 2.4376 98.7814 2.42637C98.7814 2.41513 98.7702 2.4039 98.7702 2.38143C98.7702 2.3702 98.759 2.35896 98.759 2.34773C98.759 2.3365 98.759 2.31403 98.7478 2.3028C98.7478 2.2691 98.7478 2.24663 98.7478 2.21293V1.26935H96.2581V10.5704H97.8618C98.0188 10.5704 98.1534 10.6153 98.2655 10.694C98.3104 10.7277 98.344 10.7726 98.3777 10.8063C98.4786 10.9299 98.5122 11.0422 98.5459 11.1433C98.602 11.323 98.6244 11.4241 98.6693 11.5814C98.7814 12.0757 99.1403 12.7721 99.7459 13.3113C99.9029 13.4573 100.071 13.5809 100.239 13.6932C100.778 14.0415 101.35 14.21 101.944 14.21C102.841 14.21 103.604 14.0302 104.209 13.6708C104.804 13.3113 105.028 12.8845 105.084 12.334C105.095 12.188 105.107 11.6713 104.793 11.1658C104.624 10.8962 104.434 10.7389 104.299 10.6378C104.008 10.4019 103.727 10.2896 103.155 10.0986C102.774 9.96382 102.292 9.81779 101.742 9.64929L101.024 9.43586C100.127 9.1438 99.5664 8.94161 99.2973 8.81804C98.344 8.32378 97.8281 7.55992 97.7721 6.54894C97.7721 5.54919 98.1758 4.8078 98.9833 4.34724C99.7683 3.88668 100.733 3.65078 101.866 3.65078H101.955C102.976 3.65078 103.873 3.94284 104.624 4.51573C104.737 4.4034 104.882 4.34724 105.073 4.34724C105.252 4.34724 105.398 4.41463 105.533 4.5382C105.667 4.66176 105.723 4.81903 105.723 4.98753V6.57141C105.723 6.81854 105.611 7.0095 105.398 7.12183C105.185 7.23416 104.972 7.23416 104.759 7.12183C104.546 7.0095 104.434 6.81854 104.434 6.57141V6.08838C104.019 5.57165 103.738 5.36945 103.346 5.17849C102.998 5.00999 102.527 4.92013 101.966 4.92013H101.854C100.968 4.92013 100.273 5.06616 99.7907 5.34699C99.5328 5.49302 99.3534 5.68399 99.23 5.89742C99.1851 5.98728 99.0618 6.22318 99.0842 6.53771C99.1291 7.15553 99.701 7.55993 99.9478 7.66103C99.9814 7.67226 100.105 7.72842 100.239 7.77336C100.273 7.78459 100.408 7.84075 100.643 7.91939C100.811 7.97555 100.856 7.99802 101.058 8.06542C101.26 8.13281 101.417 8.18898 101.495 8.21145C101.675 8.27885 102.034 8.39118 102.785 8.61584C103.323 8.76187 103.839 8.95284 104.333 9.1775C104.826 9.3797 105.308 9.70546 105.757 10.2784C106.094 10.8063 106.351 11.4466 106.351 12.3453Z" fill="#F8F8F8"/>
<path d="M91.2671 2.59473C91.2671 2.5835 91.2559 2.5835 91.2559 2.57227C91.2559 2.5835 91.2559 2.5835 91.2671 2.59473Z" fill="#F8F8F8"/>
</svg>
