<svg width="48" height="36" viewBox="0 0 48 36" fill="none" xmlns="http://www.w3.org/2000/svg">
<path d="M14.1699 5.6701C14.1599 5.6501 14.1499 5.64012 14.1399 5.62012C14.1499 5.63012 14.1499 5.64012 14.1599 5.65012C14.1599 5.66012 14.1599 5.6601 14.1699 5.6701Z" fill="#841A10"/>
<path d="M47.34 27.07C47.34 28.57 46.81 29.91 45.75 31.04C43.84 32.99 41.09 33.99 37.59 33.99C35.74 33.99 33.98 33.47 32.34 32.43C32.22 32.35 31.63 31.99 30.96 31.4C30.96 31.4 29.2 29.88 28.3 28.06C28.24 27.93 28.17 27.78 28.17 27.78C28.06 27.56 27.95 27.31 27.83 27C27.67 26.59 27.55 26.25 27.48 25.98H25.1V32.42H26.22C26.94 32.42 27.52 33 27.52 33.72V33.96C27.52 34.68 26.94 35.26 26.22 35.26H21.12C20.4 35.26 19.82 34.68 19.82 33.96V33.72C19.82 33 20.4 32.42 21.12 32.42H22.24V25.98H19.86C19.79 26.25 19.67 26.6 19.51 27C19.39 27.3 19.27 27.56 19.17 27.78C19.17 27.78 19.1 27.93 19.04 28.06C18.14 29.88 16.38 31.4 16.38 31.4C15.71 31.99 15.12 32.35 15 32.43C13.36 33.47 11.6 33.99 9.75 33.99C6.25 33.99 3.5 32.99 1.59 31.04C0.529996 29.91 0 28.58 0 27.07C0 25.1 0.570009 23.67 1.40001 22.59C2.37001 21.33 3.45 20.61 4.53 20.17C5.61 19.68 6.77 19.26 7.94 18.95C9.6 18.45 10.38 18.19 10.78 18.05C10.96 17.99 11.3 17.87 11.73 17.72C12.18 17.57 12.28 17.54 12.65 17.41C13.18 17.23 13.47 17.12 13.54 17.09C13.84 16.98 14.11 16.87 14.18 16.83C14.73 16.59 15.99 15.72 16.08 14.36C16.13 13.67 15.85 13.14 15.75 12.95C15.49 12.47 15.09 12.06 14.52 11.74C13.45 11.11 11.92 10.79 9.97 10.79H9.73001C8.48001 10.79 7.46 10.99 6.69 11.35C5.82 11.75 5.21 12.22 4.3 13.34V14.41C4.3 14.96 4.06 15.38 3.58 15.62C3.11 15.85 2.64 15.85 2.17 15.61C1.7 15.37 1.45 14.96 1.45 14.41V10.92C1.45 10.55 1.59 10.22 1.88 9.94C2.17 9.66 2.5 9.52 2.88 9.52C3.28 9.52 3.61 9.64 3.86 9.89C5.52 8.63 7.49001 7.99001 9.73001 7.99001H9.92C12.4 7.99001 14.53 8.50001 16.26 9.51001C18.02 10.53 18.92 12.16 18.92 14.35C18.79 16.58 17.66 18.25 15.56 19.34C14.97 19.62 13.73 20.07 11.76 20.7L10.19 21.16C8.98 21.51 7.94 21.85 7.09 22.14C5.82 22.57 5.22001 22.82 4.57001 23.33C4.28001 23.56 3.86001 23.9 3.49001 24.5C2.79001 25.62 2.81 26.75 2.84 27.07C2.97 28.28 3.47001 29.22 4.76001 30C6.09001 30.8 7.75001 31.19 9.73001 31.19C11.05 31.19 12.31 30.81 13.48 30.04C13.87 29.79 14.23 29.51 14.58 29.2C15.91 28.01 16.69 26.5 16.95 25.4C17.03 25.06 17.08 24.84 17.21 24.45C17.29 24.22 17.38 23.97 17.59 23.7C17.65 23.62 17.72 23.53 17.83 23.45C18.06 23.27 18.36 23.17 18.71 23.17H22.23V2.76001H16.75V4.84001C16.75 4.91001 16.75 4.98001 16.74 5.04001V5.05C16.74 5.09 16.73 5.12001 16.72 5.15001C16.72 5.18001 16.71 5.20001 16.7 5.23001C16.69 5.26001 16.68 5.29001 16.67 5.32001C16.66 5.35001 16.65 5.38001 16.64 5.40001C16.63 5.43001 16.61 5.46001 16.6 5.49001C16.59 5.51001 16.57 5.54 16.56 5.56C16.54 5.59 16.53 5.61 16.51 5.63C16.49 5.65 16.48 5.68 16.46 5.7C16.44 5.72 16.42 5.75 16.4 5.77C16.38 5.79 16.36 5.81 16.34 5.83C16.32 5.85 16.29 5.87 16.27 5.89C16.22 5.93 16.17 5.96 16.11 6C16.05 6.04 16 6.06001 15.94 6.09001C15.91 6.10001 15.89 6.11001 15.87 6.12001C15.53 6.24001 15.15 6.25 14.81 6.13C14.8 6.13 14.8 6.12001 14.79 6.12001C14.78 6.12001 14.77 6.11 14.76 6.11C14.75 6.1 14.74 6.10001 14.73 6.09001C14.71 6.08001 14.69 6.07 14.67 6.06H14.66C14.65 6.06 14.65 6.05 14.64 6.05C14.63 6.05 14.63 6.04001 14.62 6.04001C14.58 6.02001 14.55 6.00001 14.52 5.98001C14.49 5.96001 14.46 5.94 14.43 5.92C14.4 5.9 14.37 5.87001 14.34 5.85001C14.32 5.83001 14.3 5.82 14.29 5.8C14.28 5.79 14.27 5.78 14.26 5.77C14.26 5.76 14.25 5.76 14.25 5.75C14.23 5.73 14.21 5.71 14.19 5.69C14.19 5.69 14.19 5.68001 14.18 5.68001L14.17 5.67C14.16 5.66 14.15 5.65 14.15 5.64C14.14 5.63 14.13 5.62 14.13 5.61C14.11 5.59 14.1 5.56001 14.08 5.54001C14.06 5.50001 14.04 5.47001 14.02 5.43001C14.01 5.40001 14 5.38001 13.99 5.35001C13.97 5.30001 13.96 5.24 13.95 5.19C13.93 5.09 13.92 4.99001 13.92 4.88V1.39C13.92 1.02 14.05 0.690004 14.32 0.410004C14.35 0.380004 14.39 0.350006 14.39 0.350006C14.4 0.340006 14.43 0.320009 14.47 0.290009C14.51 0.260009 14.59 0.200009 14.7 0.150009C14.73 0.140009 14.77 0.120012 14.83 0.0900116C14.83 0.0900116 15.01 0.0300098 15.21 0.0100098C15.26 0.0100098 15.3 0 15.35 0H32C32.05 0 32.09 9.76585e-06 32.14 0.0100098C32.34 0.0300098 32.52 0.0900116 32.52 0.0900116C32.58 0.110012 32.63 0.140009 32.65 0.150009C32.76 0.200009 32.84 0.260009 32.88 0.290009C32.92 0.320009 32.95 0.340006 32.96 0.350006C32.96 0.350006 33 0.380004 33.03 0.410004C33.29 0.690004 33.43 1.02 33.43 1.39V4.88C33.43 4.99001 33.42 5.09 33.4 5.19C33.39 5.25 33.37 5.30001 33.36 5.35001C33.35 5.38001 33.34 5.41001 33.33 5.43001C33.32 5.46001 33.3 5.49 33.28 5.53C33.28 5.53 33.27 5.54 33.27 5.55C33.26 5.58 33.24 5.60001 33.22 5.62001V5.63C33.2 5.66001 33.18 5.68001 33.16 5.71001C33.14 5.73001 33.12 5.75 33.1 5.77C33.1 5.78 33.09 5.78001 33.09 5.79001C33.08 5.80001 33.07 5.81001 33.06 5.82001C33.04 5.84001 33.02 5.86001 33.01 5.87001C32.98 5.90001 32.95 5.92 32.92 5.94C32.89 5.96 32.86 5.98 32.83 6C32.8 6.02 32.76 6.04 32.73 6.06C32.72 6.06 32.72 6.07001 32.71 6.07001C32.7 6.07001 32.7 6.08 32.69 6.08H32.68C32.66 6.09 32.64 6.1 32.62 6.11C32.61 6.12 32.6 6.12 32.59 6.13C32.58 6.14001 32.57 6.14 32.56 6.14C32.55 6.14 32.55 6.15001 32.54 6.15001C32.2 6.27001 31.82 6.27 31.48 6.14C31.45 6.13 31.43 6.12 31.41 6.11C31.35 6.08 31.29 6.06 31.24 6.02C31.19 5.99 31.13 5.95 31.08 5.91C31.06 5.89 31.03 5.87001 31.01 5.85001C30.99 5.83001 30.97 5.81001 30.95 5.79001C30.93 5.77001 30.91 5.75 30.89 5.72C30.87 5.7 30.85 5.67001 30.84 5.65001C30.82 5.62001 30.81 5.6 30.79 5.58C30.78 5.56 30.76 5.54001 30.75 5.51001C30.73 5.48001 30.72 5.45 30.71 5.42C30.7 5.39 30.69 5.37001 30.68 5.34001C30.67 5.31001 30.66 5.28 30.65 5.25C30.64 5.22 30.64 5.2 30.63 5.17C30.62 5.14 30.62 5.11001 30.61 5.07001V5.06C30.6 5 30.6 4.93 30.6 4.86V2.78H25.12V23.19H28.64C28.99 23.19 29.29 23.28 29.52 23.47C29.63 23.56 29.7 23.64 29.76 23.72C29.97 23.99 30.07 24.25 30.14 24.47C30.27 24.87 30.32 25.09 30.4 25.42C30.66 26.52 31.43 28.03 32.77 29.22C33.12 29.53 33.48 29.82 33.87 30.06C35.05 30.83 36.31 31.21 37.62 31.21C39.6 31.21 41.27 30.81 42.59 30.02C43.89 29.24 44.39 28.3 44.51 27.09C44.54 26.78 44.56 25.65 43.86 24.52C43.49 23.93 43.07 23.59 42.78 23.35C42.13 22.83 41.53 22.59 40.26 22.16C39.41 21.87 38.37 21.53 37.16 21.18L35.59 20.72C33.62 20.09 32.38 19.64 31.79 19.36C29.69 18.27 28.56 16.6 28.43 14.37C28.43 12.18 29.33 10.55 31.09 9.53C32.81 8.52 34.94 8.01001 37.43 8.01001H37.62C39.86 8.01001 41.83 8.65 43.49 9.91C43.74 9.66 44.07 9.54001 44.47 9.54001C44.86 9.54001 45.19 9.68001 45.47 9.96001C45.75 10.23 45.9 10.57 45.9 10.94V14.43C45.9 14.98 45.65 15.4 45.18 15.63C44.71 15.86 44.24 15.87 43.77 15.64C43.3 15.39 43.05 14.98 43.05 14.43V13.36C42.14 12.24 41.53 11.77 40.66 11.37C39.89 11.01 38.87 10.81 37.62 10.81H37.38C35.43 10.81 33.9 11.13 32.83 11.76C32.27 12.09 31.86 12.49 31.6 12.97C31.5 13.16 31.23 13.69 31.27 14.38C31.36 15.74 32.62 16.61 33.17 16.85C33.25 16.88 33.52 16.99 33.81 17.11C33.88 17.14 34.17 17.25 34.7 17.43C35.07 17.56 35.17 17.59 35.62 17.74C36.06 17.89 36.4 18.01 36.57 18.07C36.97 18.21 37.75 18.47 39.41 18.97C40.58 19.28 41.74 19.7 42.82 20.19C43.9 20.63 44.98 21.36 45.95 22.61C46.77 23.67 47.34 25.1 47.34 27.07Z" fill="#841A10"/>
<path d="M14.1699 5.6701C14.1599 5.6501 14.1499 5.64012 14.1399 5.62012C14.1499 5.63012 14.1499 5.64012 14.1599 5.65012C14.1599 5.66012 14.1599 5.6601 14.1699 5.6701Z" fill="#841A10"/>
<path d="M14.7499 6.09982C14.7399 6.09982 14.7199 6.08982 14.7099 6.07982C14.6999 6.07982 14.6899 6.06982 14.6899 6.06982C14.6999 6.07982 14.7099 6.07982 14.7199 6.07982C14.7299 6.08982 14.7399 6.09982 14.7499 6.09982Z" fill="#841A10"/>
</svg>
