<svg width="192" height="64" viewBox="0 0 192 64" fill="none" xmlns="http://www.w3.org/2000/svg">
<path d="M8.871 35.8451V37.429C8.871 37.6761 8.75884 37.8671 8.54576 37.9794C8.33267 38.0918 8.1196 38.0918 7.90652 37.9794C7.69343 37.8671 7.58127 37.6761 7.58127 37.429V36.4854H5.09156V45.7865H5.51774C5.77568 45.7865 5.96633 45.8988 6.07848 46.1122C6.19063 46.3144 6.19063 46.5279 6.07848 46.7413C5.96633 46.9435 5.76446 47.0558 5.51774 47.0558H3.35327C3.09532 47.0558 2.90467 46.9435 2.79252 46.7413C2.68037 46.5279 2.68037 46.3144 2.79252 46.1122C2.90467 45.8988 3.09532 45.7865 3.35327 45.7865H3.79065V36.4854H1.30093V37.429C1.30093 37.6761 1.18878 37.8671 0.975692 37.9794C0.762609 38.0918 0.549534 38.0918 0.336451 37.9794C0.123367 37.8671 0 37.6761 0 37.429V35.8451C0 35.6766 0.0560787 35.5306 0.179443 35.3958C0.302807 35.261 0.459813 35.2048 0.650467 35.2048H8.23174C8.39997 35.2048 8.54577 35.261 8.68035 35.3846C8.80371 35.5081 8.871 35.6542 8.871 35.8451Z" fill="#841A10"/>
<path d="M21.1179 36.1596C21.0057 36.3618 20.8151 36.4742 20.5571 36.4742H20.0413L18.5048 46.7638C18.4712 46.9997 18.3254 47.1682 18.0899 47.2468C17.9889 47.2805 17.9104 47.2917 17.8656 47.2917C17.4394 47.2917 17.2936 47.0334 17.2375 46.8312L15.7011 41.765L14.1646 46.8424C14.0749 47.0783 13.9179 47.2243 13.6936 47.2693C13.6712 47.2917 13.6151 47.2917 13.5478 47.2917C13.2114 47.2917 12.9871 47.112 12.8974 46.7638L11.3385 36.4854H10.8226C10.5646 36.4854 10.374 36.3731 10.2618 36.1709C10.1497 35.9575 10.1497 35.744 10.2618 35.5418C10.374 35.3284 10.5646 35.2161 10.8226 35.2161H12.9871C13.245 35.2161 13.4357 35.3284 13.5478 35.5418C13.66 35.744 13.66 35.9575 13.5478 36.1709C13.4357 36.3731 13.245 36.4854 12.9871 36.4854H12.6506L13.7273 43.7308L15.0618 39.3723C15.1067 39.1701 15.2637 38.9118 15.6899 38.9118C15.746 38.9118 15.8245 38.923 15.9142 38.9567C16.1048 39.0466 16.2394 39.1814 16.3067 39.3611L17.6413 43.7308L18.7179 36.4854H18.3814C18.1235 36.4854 17.9329 36.3731 17.8207 36.1709C17.7086 35.9575 17.7086 35.744 17.8207 35.5418C17.9329 35.3284 18.1235 35.2161 18.3814 35.2161H20.5459C20.8039 35.2161 20.9945 35.3284 21.1067 35.5418C21.23 35.744 21.23 35.9574 21.1179 36.1596Z" fill="#841A10"/>
<path d="M29.6742 46.101C29.7864 46.3032 29.7864 46.5166 29.6742 46.7301C29.5621 46.9323 29.3714 47.0446 29.1135 47.0446H24.7845C24.5266 47.0446 24.3359 46.9323 24.2238 46.7301C24.1116 46.5166 24.1116 46.3032 24.2238 46.101C24.3359 45.8876 24.5266 45.7753 24.7845 45.7753H26.2985V36.4742H24.7845C24.5266 36.4742 24.3359 36.3618 24.2238 36.1597C24.1116 35.9462 24.1116 35.7328 24.2238 35.5306C24.3359 35.3172 24.5266 35.2048 24.7845 35.2048H29.1135C29.3714 35.2048 29.5621 35.3172 29.6742 35.5306C29.7864 35.7328 29.7864 35.9462 29.6742 36.1597C29.5621 36.3618 29.3714 36.4742 29.1135 36.4742H27.5994V45.7753H29.1135C29.3602 45.7753 29.5621 45.8876 29.6742 46.101Z" fill="#841A10"/>
<path d="M43.0876 36.1596C42.9755 36.3618 42.7848 36.4742 42.5269 36.4742H42.0895V46.4043C42.0895 46.629 41.9998 46.7975 41.8316 46.9098C41.697 46.9997 41.5736 47.0334 41.4503 47.0334C41.2035 47.0334 41.0241 46.9323 40.9007 46.7301L35.6073 38.1142V45.764H36.0447C36.3026 45.764 36.4933 45.8763 36.6054 46.0898C36.7176 46.292 36.7176 46.5054 36.6054 46.7188C36.4933 46.921 36.3026 47.0334 36.0447 47.0334H33.8802C33.6223 47.0334 33.4316 46.921 33.3195 46.7188C33.2073 46.5054 33.2073 46.292 33.3195 46.0898C33.4316 45.8763 33.6223 45.764 33.8802 45.764H34.3176V36.4629H33.8802C33.6223 36.4629 33.4316 36.3506 33.3195 36.1484C33.2073 35.935 33.2073 35.7216 33.3195 35.5194C33.4316 35.3059 33.6223 35.1936 33.8802 35.1936H34.9568C35.0353 35.1936 35.1026 35.2048 35.1587 35.2161C35.3045 35.2722 35.4166 35.3621 35.4951 35.4969L40.7886 44.1127V36.4629H40.3624C40.1045 36.4629 39.9138 36.3506 39.8017 36.1484C39.6895 35.935 39.6895 35.7216 39.8017 35.5194C39.9138 35.3059 40.1045 35.1936 40.3624 35.1936H42.5269C42.7848 35.1936 42.9755 35.3059 43.0876 35.5194C43.1998 35.744 43.1998 35.9575 43.0876 36.1596Z" fill="#841A10"/>
<path d="M53.8654 43.8993C53.8654 44.5845 53.6187 45.1911 53.1476 45.7078C52.2729 46.5953 51.028 47.0558 49.4355 47.0558C48.5944 47.0558 47.7981 46.8087 47.0467 46.3481C46.3065 45.8763 45.7009 45.2361 45.2523 44.4497C45.1963 44.3599 45.1738 44.2588 45.1738 44.1352C45.1738 43.8881 45.286 43.6971 45.4878 43.5736C45.6 43.5174 45.7121 43.4949 45.8243 43.4949C46.071 43.4949 46.2505 43.596 46.3738 43.7982C46.7439 44.416 47.1925 44.8991 47.7308 45.2473C48.2691 45.5955 48.8411 45.764 49.4355 45.764C50.3327 45.764 51.0953 45.5843 51.7009 45.2248C52.2953 44.8654 52.5757 44.4273 52.5757 43.8881C52.5757 43.1467 52.3177 42.585 51.7906 42.1919C51.5888 42.0009 51.2074 41.8212 50.6355 41.6414C49.8168 41.3831 49.3682 41.237 49.2336 41.1921L48.5159 40.9787C47.6187 40.6866 47.0579 40.4844 46.7888 40.3609C45.8355 39.8666 45.3196 39.1027 45.2523 38.0918C45.2523 37.092 45.6561 36.3506 46.4636 35.8788C47.2486 35.4183 48.2131 35.1936 49.3458 35.1936H49.4355C50.4561 35.1936 51.3533 35.4857 52.1047 36.0586C52.2168 35.9462 52.3626 35.8901 52.5532 35.8901C52.7215 35.8901 52.8785 35.9575 53.0018 36.081C53.1364 36.2046 53.1925 36.3618 53.1925 36.5303V38.1142C53.1925 38.3614 53.0803 38.5523 52.8673 38.6646C52.6542 38.777 52.4411 38.777 52.228 38.6646C52.0149 38.5523 51.8916 38.3726 51.8916 38.1142V37.6312C51.5103 37.1931 51.1402 36.8898 50.8037 36.7213C50.4561 36.5528 49.9962 36.4629 49.4243 36.4629H49.3121C48.4262 36.4629 47.7308 36.609 47.2486 36.8898C46.7776 37.1706 46.542 37.5638 46.542 38.0805C46.542 38.4849 46.8336 38.8668 47.4168 39.2151L47.6972 39.3274C47.8205 39.3723 47.9551 39.4173 48.1009 39.4734C48.2579 39.5296 48.3589 39.5633 48.4262 39.597L48.9532 39.7655C49.2673 39.8778 49.4916 39.934 49.6149 39.9677L50.2542 40.1811C50.7813 40.3159 51.3084 40.5069 51.8018 40.7315C52.2841 40.9337 52.7663 41.3044 53.2261 41.8436C53.6523 42.3154 53.8654 43.0119 53.8654 43.8993Z" fill="#841A10"/>
<path d="M128.298 36.418C128.186 36.6314 127.995 36.7437 127.737 36.7437H127.02L124.059 41.574V46.0448H124.496C124.754 46.0448 124.945 46.1571 125.057 46.3593C125.169 46.5727 125.169 46.7862 125.057 46.9884C124.945 47.2018 124.754 47.3141 124.496 47.3141H122.332C122.074 47.3141 121.883 47.2018 121.771 46.9884C121.659 46.7862 121.659 46.5727 121.771 46.3593C121.883 46.1459 122.074 46.0335 122.332 46.0335H122.758V41.5627L119.797 36.7325H119.079C118.821 36.7325 118.631 36.6201 118.519 36.4067C118.407 36.2045 118.407 35.9911 118.519 35.7777C118.631 35.5755 118.821 35.4631 119.079 35.4631H121.244C121.502 35.4631 121.692 35.5755 121.805 35.7777C121.917 35.9911 121.917 36.2045 121.805 36.4067C121.704 36.5977 121.535 36.71 121.311 36.7212L123.408 40.1361L125.506 36.7212C125.281 36.71 125.113 36.5977 125.001 36.4067C124.889 36.2045 124.889 35.9911 125.001 35.7777C125.113 35.5755 125.304 35.4631 125.562 35.4631H127.726C127.984 35.4631 128.175 35.5755 128.287 35.7777C128.41 35.9911 128.41 36.2045 128.298 36.418Z" fill="#841A10"/>
<path d="M116.601 36.1034V37.6873C116.601 37.9344 116.489 38.1254 116.265 38.2377C116.051 38.3501 115.838 38.3501 115.625 38.2377C115.412 38.1254 115.3 37.9344 115.3 37.6873V36.7437H112.81V46.0448H113.236C113.494 46.0448 113.685 46.1571 113.797 46.3593C113.909 46.5727 113.909 46.7862 113.797 46.9884C113.685 47.2018 113.494 47.3141 113.236 47.3141H111.072C110.814 47.3141 110.623 47.2018 110.511 46.9884C110.399 46.7862 110.399 46.5727 110.511 46.3593C110.623 46.1459 110.814 46.0336 111.072 46.0336H111.498V36.7325H109.008V37.6761C109.008 37.9232 108.896 38.1142 108.683 38.2265C108.47 38.3388 108.257 38.3276 108.044 38.2265C107.831 38.1142 107.719 37.9232 107.719 37.6761V36.0922C107.719 35.9237 107.775 35.7777 107.898 35.6429C108.022 35.5193 108.179 35.4519 108.358 35.4519H115.939C116.108 35.4519 116.265 35.5081 116.388 35.6316C116.522 35.7552 116.601 35.9125 116.601 36.1034Z" fill="#841A10"/>
<path d="M105.79 36.4179C105.678 36.6314 105.487 36.7437 105.23 36.7437H104.792V43.5061C104.792 44.5508 104.4 45.4607 103.637 46.202C102.886 46.9434 101.966 47.3141 100.901 47.3141C99.8352 47.3141 98.9155 46.9434 98.1417 46.202C97.3903 45.4382 97.009 44.5283 97.009 43.5061V36.7437H96.5716C96.3137 36.7437 96.123 36.6314 96.0109 36.4179C95.8987 36.2158 95.8987 36.0023 96.0109 35.7889C96.123 35.5867 96.3137 35.4744 96.5716 35.4744H98.7361C98.994 35.4744 99.1847 35.5867 99.2968 35.7889C99.409 36.0023 99.409 36.2158 99.2968 36.4179C99.1847 36.6314 98.994 36.7437 98.7361 36.7437H98.3099V43.5061C98.3099 44.1913 98.5679 44.7867 99.0725 45.2922C99.5884 45.7864 100.194 46.0448 100.901 46.0448C101.607 46.0448 102.224 45.7864 102.729 45.2922C103.233 44.7867 103.491 44.1913 103.491 43.5061V36.7437H103.054C102.796 36.7437 102.605 36.6314 102.493 36.4179C102.381 36.2158 102.381 36.0023 102.493 35.7889C102.605 35.5867 102.796 35.4744 103.054 35.4744H105.218C105.476 35.4744 105.667 35.5867 105.779 35.7889C105.902 35.9911 105.902 36.2045 105.79 36.4179Z" fill="#841A10"/>
<path d="M94.5412 46.3594C94.4291 46.1572 94.2384 46.0448 93.9805 46.0448H93.3861L90.2683 35.6879C90.2235 35.4744 90.0777 35.2273 89.6403 35.2273C89.5842 35.2273 89.5169 35.2385 89.3936 35.2835C89.2029 35.3621 89.0796 35.4969 89.0123 35.6879L85.8945 46.0561H85.3001C85.0422 46.0561 84.8515 46.1684 84.7394 46.3706C84.6272 46.584 84.6272 46.7975 84.7394 46.9997C84.8515 47.2131 85.0422 47.3254 85.3001 47.3254H87.4646C87.7226 47.3254 87.9132 47.2131 88.0254 47.0109C88.1375 46.7975 88.1375 46.584 88.0254 46.3818C87.9132 46.1796 87.7226 46.0673 87.4646 46.0673H87.2403L87.9805 43.6409H91.2777L92.0179 46.0673H91.7936C91.5356 46.0673 91.345 46.1796 91.2328 46.3818C91.1207 46.5953 91.1207 46.8087 91.2328 47.0109C91.345 47.2243 91.5356 47.3367 91.7936 47.3367H93.958C94.216 47.3367 94.4066 47.2243 94.5188 47.0221C94.6534 46.775 94.6534 46.5616 94.5412 46.3594ZM90.9076 42.3379H88.3842L89.6515 38.1142L90.9076 42.3379Z" fill="#841A10"/>
<path d="M81.5322 37.6873V36.7437H76.3285V40.754H78.8182V40.3271C78.8182 40.08 78.9304 39.889 79.1435 39.7767C79.3565 39.6643 79.5696 39.6643 79.7827 39.7767C79.9958 39.889 80.1192 40.0687 80.1192 40.3271V42.4389C80.1192 42.6973 80.007 42.8883 79.7827 42.9894C79.5696 43.1017 79.3565 43.1017 79.1435 42.9894C78.9304 42.877 78.8182 42.6973 78.8182 42.4389V42.0233H76.3285V46.0335H81.5322V45.09C81.5322 44.8428 81.6444 44.6519 81.8575 44.5395C82.0706 44.4272 82.2836 44.4272 82.4967 44.5395C82.7098 44.6519 82.8332 44.8428 82.8332 45.09V46.6738C82.8332 46.8648 82.7659 47.0221 82.6313 47.1344C82.4967 47.2467 82.3509 47.3141 82.1827 47.3141H74.6126C74.3547 47.3141 74.164 47.2018 74.0519 46.9884C73.9397 46.7862 73.9397 46.5727 74.0519 46.3593C74.164 46.1459 74.3547 46.0335 74.6126 46.0335H75.0388V36.7325H74.6126C74.3547 36.7325 74.164 36.6201 74.0519 36.4067C73.9397 36.2045 73.9397 35.9911 74.0519 35.7777C74.164 35.5755 74.3547 35.4631 74.6126 35.4631H82.1827C82.3509 35.4631 82.5079 35.5193 82.6313 35.6429C82.7659 35.7552 82.8332 35.9125 82.8332 36.1034V37.6873C82.8332 37.9344 82.721 38.1254 82.4967 38.2377C82.2836 38.3501 82.0706 38.3501 81.8575 38.2377C81.6444 38.1254 81.5322 37.9344 81.5322 37.6873Z" fill="#841A10"/>
<path d="M69.4874 40.6416C70.1603 40.1137 70.4968 39.361 70.4968 38.395C70.4968 37.0245 69.8127 36.1371 68.4669 35.7552C67.8837 35.5642 67.065 35.4744 66.0556 35.4744H63.3529C63.0949 35.4744 62.9043 35.5867 62.7921 35.7889C62.68 36.0023 62.68 36.2158 62.7921 36.4179C62.9043 36.6314 63.0949 36.7437 63.3529 36.7437H63.779V46.0448H63.3529C63.0949 46.0448 62.9043 46.1571 62.7921 46.3593C62.68 46.5727 62.68 46.7862 62.7921 46.9884C62.9043 47.2018 63.0949 47.3141 63.3529 47.3141H67.1435C68.3547 47.3141 69.4089 46.9996 70.2612 46.3818C71.136 45.7415 71.5846 44.8316 71.5846 43.6746C71.5734 42.2143 70.8781 41.192 69.4874 40.6416ZM66.0556 36.7437C67.222 36.7437 68.0631 36.856 68.5229 37.0919C68.9715 37.3166 69.1846 37.7435 69.1846 38.395C69.1846 39.069 68.9491 39.5183 68.4556 39.7991C67.951 40.08 67.1435 40.226 66.0444 40.226H65.0687V36.7437H66.0556ZM69.4426 45.4045C68.8818 45.8201 68.108 46.0335 67.1435 46.0335H65.08V41.4953H67.1435C69.2519 41.4953 70.2837 42.203 70.2837 43.6746C70.2837 44.4272 70.0033 45.0001 69.4426 45.4045Z" fill="#841A10"/>
<path d="M169.11 36.4179C168.998 36.6314 168.807 36.7437 168.549 36.7437H168.112V43.5061C168.112 44.5508 167.719 45.4607 166.957 46.202C166.205 46.9434 165.286 47.3141 164.22 47.3141C163.155 47.3141 162.224 46.9434 161.462 46.202C160.71 45.4382 160.329 44.5283 160.329 43.5061V36.7437H159.903C159.645 36.7437 159.454 36.6314 159.342 36.4179C159.23 36.2158 159.23 36.0023 159.342 35.7889C159.454 35.5867 159.645 35.4744 159.903 35.4744H162.067C162.325 35.4744 162.516 35.5867 162.628 35.7889C162.74 36.0023 162.74 36.2158 162.628 36.4179C162.516 36.6314 162.325 36.7437 162.067 36.7437H161.619V43.5061C161.619 44.1913 161.876 44.7867 162.392 45.2922C162.897 45.7864 163.514 46.0448 164.22 46.0448C164.927 46.0448 165.544 45.7864 166.048 45.2922C166.564 44.7867 166.822 44.1913 166.822 43.5061V36.7437H166.385C166.127 36.7437 165.936 36.6314 165.824 36.4179C165.712 36.2158 165.712 36.0023 165.824 35.7889C165.936 35.5867 166.127 35.4744 166.385 35.4744H168.549C168.807 35.4744 168.998 35.5867 169.11 35.7889C169.222 35.9911 169.211 36.2045 169.11 36.4179Z" fill="#841A10"/>
<path d="M189.869 37.6873V36.7437H184.677V40.754H187.166V40.3271C187.166 40.08 187.278 39.889 187.503 39.7767C187.716 39.6643 187.929 39.6643 188.142 39.7767C188.355 39.889 188.467 40.0687 188.467 40.3271V42.4389C188.467 42.6973 188.355 42.8883 188.142 42.9894C187.929 43.1017 187.716 43.1017 187.503 42.9894C187.29 42.877 187.166 42.6973 187.166 42.4389V42.0233H184.677V46.0335H189.869V45.09C189.869 44.8428 189.981 44.6519 190.206 44.5395C190.419 44.4272 190.632 44.4272 190.845 44.5395C191.058 44.6519 191.181 44.8428 191.181 45.09V46.6738C191.181 46.8648 191.114 47.0221 190.979 47.1344C190.845 47.2467 190.699 47.3141 190.531 47.3141H182.95C182.692 47.3141 182.501 47.2018 182.389 46.9884C182.277 46.7862 182.277 46.5727 182.389 46.3593C182.501 46.1459 182.692 46.0335 182.95 46.0335H183.387V36.7325H182.95C182.692 36.7325 182.501 36.6201 182.389 36.4067C182.277 36.2045 182.277 35.9911 182.389 35.7777C182.501 35.5755 182.692 35.4631 182.95 35.4631H190.531C190.699 35.4631 190.856 35.5193 190.979 35.6429C191.114 35.7552 191.181 35.9125 191.181 36.1034V37.6873C191.181 37.9344 191.069 38.1254 190.845 38.2377C190.632 38.3501 190.419 38.3501 190.206 38.2377C189.981 38.1254 189.869 37.9344 189.869 37.6873Z" fill="#841A10"/>
<path d="M179.888 44.1576C179.888 44.8428 179.641 45.4607 179.159 45.9662C178.284 46.8536 177.039 47.3141 175.447 47.3141C174.606 47.3141 173.809 47.067 173.058 46.5952C172.318 46.1234 171.712 45.4831 171.252 44.6968C171.196 44.6069 171.174 44.5058 171.174 44.3823C171.174 44.1351 171.286 43.9442 171.488 43.8206C171.6 43.7644 171.701 43.742 171.824 43.742C172.071 43.742 172.25 43.8431 172.374 44.0453C172.744 44.6631 173.193 45.1461 173.742 45.4944C174.28 45.8426 174.852 46.0111 175.447 46.0111C176.344 46.0111 177.107 45.8314 177.701 45.4719C178.295 45.1124 178.576 44.6743 178.576 44.1352C178.576 43.3938 178.318 42.8321 177.791 42.4502C177.589 42.2592 177.207 42.0682 176.636 41.8885C175.839 41.6414 175.368 41.4841 175.222 41.4504L174.505 41.237C173.63 40.9562 173.047 40.754 172.778 40.6192C171.813 40.1249 171.308 39.3611 171.241 38.3501C171.241 37.3503 171.645 36.6089 172.452 36.1371C173.237 35.6766 174.202 35.4519 175.335 35.4519H175.424C176.445 35.4519 177.342 35.744 178.093 36.3169C178.206 36.2045 178.363 36.1484 178.542 36.1484C178.71 36.1484 178.867 36.2045 179.002 36.3393C179.136 36.4741 179.193 36.6202 179.193 36.7887V38.3725C179.193 38.6197 179.08 38.8106 178.856 38.923C178.643 39.0353 178.43 39.0353 178.217 38.923C178.004 38.8106 177.892 38.6309 177.892 38.3725V37.8783C177.51 37.4514 177.14 37.1369 176.804 36.9796C176.456 36.8111 175.996 36.7212 175.424 36.7212H175.312C174.426 36.7212 173.731 36.8673 173.249 37.1481C172.778 37.4289 172.542 37.8221 172.542 38.3501C172.542 38.7545 172.845 39.1364 173.417 39.4846L173.697 39.5969C173.821 39.6419 173.955 39.6868 174.101 39.743C174.258 39.7991 174.37 39.8328 174.426 39.8665L174.953 40.0463C175.267 40.1474 175.492 40.2148 175.615 40.2485L176.254 40.4619C176.781 40.5967 177.308 40.7877 177.802 41.0123C178.284 41.2145 178.766 41.5852 179.226 42.1132C179.675 42.5737 179.888 43.259 179.888 44.1576Z" fill="#841A10"/>
<path d="M156.09 36.7437C155.215 35.9012 154.172 35.4631 152.961 35.4631C151.749 35.4631 150.695 35.89 149.832 36.7437C148.957 37.5974 148.52 38.6197 148.52 39.7991V42.9669C148.52 44.1464 148.957 45.1798 149.832 46.0223C150.695 46.8648 151.749 47.3029 152.961 47.3029C154.172 47.3029 155.215 46.876 156.09 46.0223C156.953 45.1686 157.402 44.1464 157.402 42.9669V39.7991C157.402 38.6197 156.953 37.5974 156.09 36.7437ZM152.961 46.0335C152.12 46.0335 151.379 45.7303 150.74 45.1349C150.123 44.5058 149.82 43.7757 149.82 42.9669V39.7991C149.82 38.9791 150.134 38.249 150.74 37.6536C151.368 37.047 152.12 36.7325 152.961 36.7325C153.813 36.7325 154.553 37.047 155.159 37.6536C155.787 38.2377 156.101 38.9567 156.101 39.7879V42.9557C156.101 43.7757 155.787 44.5058 155.159 45.1237C154.553 45.7303 153.813 46.0335 152.961 46.0335Z" fill="#841A10"/>
<path d="M146.602 46.3593C146.714 46.5727 146.714 46.7862 146.602 46.9884C146.49 47.1906 146.299 47.3029 146.041 47.3029H143.877C143.619 47.3029 143.428 47.1906 143.316 46.9771C143.204 46.7749 143.204 46.5615 143.316 46.3481C143.428 46.1459 143.619 46.0336 143.877 46.0336H144.314V42.0233H139.11V46.0336H139.548C139.806 46.0336 139.996 46.1459 140.108 46.3481C140.221 46.5615 140.221 46.7749 140.108 46.9771C139.996 47.1793 139.806 47.2917 139.548 47.2917H137.383C137.125 47.2917 136.935 47.1793 136.822 46.9659C136.71 46.7637 136.71 46.5503 136.822 46.3369C136.935 46.1347 137.125 46.0223 137.383 46.0223H137.809V36.7212H137.383C137.125 36.7212 136.935 36.6089 136.822 36.3955C136.71 36.1933 136.71 35.9799 136.822 35.7664C136.935 35.5642 137.125 35.4519 137.383 35.4519H139.548C139.806 35.4519 139.996 35.5642 140.108 35.7664C140.221 35.9799 140.221 36.1933 140.108 36.3955C139.996 36.6089 139.806 36.7212 139.548 36.7212H139.11V40.7315H144.314V36.7212H143.877C143.619 36.7212 143.428 36.6089 143.316 36.3955C143.204 36.1933 143.204 35.9799 143.316 35.7664C143.428 35.5642 143.619 35.4519 143.877 35.4519H146.041C146.299 35.4519 146.49 35.5642 146.602 35.7664C146.714 35.9799 146.714 36.1933 146.602 36.3955C146.49 36.6089 146.299 36.7212 146.041 36.7212H145.604V46.0223H146.041C146.299 46.0336 146.49 46.1459 146.602 46.3593Z" fill="#841A10"/>
<path d="M79.9624 60.5693H77.3494V62.6475H80.254V63.2765H76.4746V57.5139H80.097V58.143H77.3382V59.9627H79.9512V60.5693H79.9624Z" fill="#841A10"/>
<path d="M81.3083 62.3667C81.7008 62.5689 82.2615 62.7374 82.8672 62.7374C83.7531 62.7374 84.269 62.333 84.269 61.7488C84.269 61.2097 83.9101 60.9064 83.0017 60.6031C81.9027 60.2661 81.2298 59.783 81.2298 58.9743C81.2298 58.0756 82.0933 57.4128 83.4055 57.4128C84.0896 57.4128 84.5943 57.5476 84.8858 57.6937L84.6503 58.3003C84.426 58.1992 83.9774 58.0307 83.3718 58.0307C82.4522 58.0307 82.1045 58.5025 82.1045 58.8956C82.1045 59.4348 82.5083 59.7044 83.4391 60.0077C84.5718 60.3784 85.155 60.8502 85.155 61.7039C85.155 62.5913 84.3924 63.3664 82.7999 63.3664C82.1494 63.3664 81.4429 63.2092 81.084 62.9957L81.3083 62.3667Z" fill="#841A10"/>
<path d="M87.6671 58.143H85.626V57.5139H90.5942V58.143H88.5418V63.2765H87.6671V58.143Z" fill="#841A10"/>
<path d="M90.5605 62.8273C90.5605 62.5128 90.8073 62.2881 91.1549 62.2881C91.5026 62.2881 91.7381 62.5128 91.7381 62.8273C91.7381 63.1306 91.5138 63.3665 91.1437 63.3665C90.7961 63.3665 90.5605 63.1306 90.5605 62.8273Z" fill="#841A10"/>
<path d="M94.7549 63.2765V62.8159L95.439 62.2431C97.0876 60.8951 97.839 60.1762 97.8502 59.3337C97.8502 58.772 97.5362 58.244 96.5605 58.244C95.9773 58.244 95.4838 58.5024 95.181 58.7158L94.9007 58.1879C95.3493 57.8621 95.9885 57.6262 96.7287 57.6262C98.1194 57.6262 98.7137 58.4462 98.7137 59.2438C98.7137 60.266 97.8502 61.0973 96.482 62.2318L95.9661 62.6475V62.6699H98.8708V63.299H94.7549V63.2765Z" fill="#841A10"/>
<path d="M104.22 60.4346C104.22 62.3218 103.402 63.3665 101.966 63.3665C100.699 63.3665 99.8466 62.3442 99.8242 60.5132C99.8242 58.6485 100.755 57.6263 102.078 57.6263C103.447 57.6151 104.22 58.6598 104.22 60.4346ZM100.71 60.5245C100.71 61.9736 101.226 62.7936 102.022 62.7936C102.92 62.7936 103.346 61.8949 103.346 60.4795C103.346 59.1091 102.942 58.2104 102.034 58.2104C101.26 58.1992 100.71 59.008 100.71 60.5245Z" fill="#841A10"/>
<path d="M106.979 58.4125H106.957L105.835 58.9293L105.667 58.3564L107.08 57.7048H107.831V63.2653H106.979V58.4125Z" fill="#841A10"/>
<path d="M112.945 63.2765V61.76H109.939V61.2658L112.833 57.7161H113.775V61.1759H114.683V61.7712H113.775V63.2877H112.945V63.2765ZM112.945 61.1646V59.3112C112.945 59.0191 112.956 58.727 112.979 58.435H112.945C112.743 58.7607 112.586 58.9966 112.407 59.255L110.825 61.1422V61.1646H112.945Z" fill="#841A10"/>
<path d="M101.36 25.3757H89.7979V26.0048H101.36V25.3757Z" fill="#841A10"/>
<path d="M91.2671 2.59473C91.2671 2.5835 91.2559 2.5835 91.2559 2.57227C91.2559 2.5835 91.2559 2.5835 91.2671 2.59473Z" fill="#841A10"/>
<path d="M106.351 12.3453C106.351 13.0305 106.105 13.6371 105.623 14.1538C104.748 15.0412 103.503 15.4905 101.91 15.4905C101.069 15.4905 100.273 15.2547 99.5216 14.7829C99.4655 14.7492 99.1964 14.5807 98.8936 14.3111C98.8936 14.3111 98.0973 13.6146 97.6824 12.7833C97.6487 12.7272 97.6263 12.6486 97.6263 12.6486C97.5814 12.5475 97.5253 12.4351 97.4693 12.2891C97.3908 12.0981 97.3459 11.9521 97.3123 11.8285H96.2356V14.7604H96.7403C97.0655 14.7604 97.3347 15.03 97.3347 15.3557V15.4681C97.3347 15.7938 97.0655 16.0634 96.7403 16.0634H94.4188C94.0936 16.0634 93.8244 15.7938 93.8244 15.4681V15.3557C93.8244 15.03 94.0936 14.7604 94.4188 14.7604H94.9235V11.8285H93.8469C93.8132 11.9521 93.7571 12.1094 93.6898 12.2891C93.6338 12.4239 93.5777 12.5475 93.5328 12.6486C93.5328 12.6486 93.4992 12.716 93.4768 12.7833C93.0618 13.6146 92.2655 14.3111 92.2655 14.3111C91.9627 14.5807 91.6936 14.7379 91.6375 14.7829C90.8973 15.2547 90.0898 15.4905 89.2487 15.4905C87.6562 15.4905 86.4114 15.0412 85.5366 14.1538C85.0544 13.6371 84.8076 13.0305 84.8076 12.3453C84.8076 11.4466 85.0656 10.7951 85.4469 10.3008C85.8843 9.72793 86.3777 9.40217 86.8712 9.19997C87.3646 8.97531 87.8917 8.78434 88.4188 8.63831C89.1702 8.41365 89.5291 8.29008 89.7085 8.23392C89.7871 8.21145 89.9441 8.15528 90.1459 8.08788C90.3478 8.02048 90.3926 8.00925 90.5609 7.94185C90.7964 7.86322 90.931 7.80705 90.9646 7.79582C91.0992 7.73966 91.2225 7.69472 91.2562 7.68349C91.5029 7.57116 92.0749 7.17799 92.1197 6.56017C92.1422 6.24564 92.0188 5.99851 91.9739 5.91988C91.8618 5.69522 91.6711 5.51549 91.4132 5.36946C90.931 5.08863 90.2356 4.94259 89.3497 4.94259H89.2375C88.6656 4.94259 88.2057 5.03246 87.8581 5.20096C87.4656 5.38069 87.1852 5.59412 86.7702 6.11085V6.59387C86.7702 6.841 86.6581 7.03196 86.445 7.1443C86.2319 7.24539 86.0188 7.24539 85.8057 7.1443C85.5927 7.03196 85.4805 6.841 85.4805 6.59387V5.00999C85.4805 4.8415 85.5478 4.69546 85.6712 4.56067C85.7945 4.42587 85.9515 4.3697 86.131 4.3697C86.3104 4.3697 86.4674 4.42587 86.5796 4.5382C87.331 3.96531 88.2282 3.67324 89.2487 3.67324H89.3385C90.4712 3.67324 91.4356 3.90914 92.2207 4.3697C93.0169 4.83026 93.4319 5.58289 93.4319 6.57141C93.3758 7.58239 92.8599 8.34625 91.9067 8.84051C91.6375 8.97531 91.0768 9.1775 90.1796 9.45833L89.4618 9.67176C88.9123 9.82902 88.4412 9.98629 88.0487 10.1211C87.4656 10.3233 87.1964 10.4244 86.9048 10.6603C86.7702 10.7614 86.5796 10.9186 86.4114 11.1882C86.0861 11.705 86.0973 12.2105 86.1198 12.3565C86.1758 12.9069 86.4001 13.3338 86.9945 13.6932C87.6001 14.0527 88.3515 14.2324 89.2599 14.2324C89.8543 14.2324 90.4263 14.0639 90.9646 13.7157C91.144 13.6034 91.3011 13.4686 91.4581 13.3338C92.0637 12.7946 92.4225 12.0981 92.5347 11.6039C92.5683 11.4466 92.5908 11.3455 92.6581 11.1658C92.6917 11.0647 92.7366 10.9411 92.8263 10.8288C92.8487 10.7951 92.8824 10.7501 92.9384 10.7164C93.0394 10.6378 93.1852 10.5929 93.3422 10.5929H94.9459V1.29181H92.4562V2.2354C92.4562 2.2691 92.4562 2.29157 92.4562 2.32527C92.4562 2.3365 92.4562 2.35896 92.445 2.3702C92.445 2.38143 92.445 2.39267 92.4338 2.4039C92.4338 2.41513 92.4226 2.42636 92.4226 2.44883C92.4226 2.46006 92.4113 2.4713 92.4113 2.48253C92.4113 2.49376 92.4001 2.51623 92.3889 2.52746C92.3889 2.5387 92.3777 2.54993 92.3665 2.56116C92.3553 2.5724 92.3553 2.58363 92.344 2.59486C92.3328 2.60609 92.3328 2.61733 92.3216 2.62856C92.3104 2.63979 92.2992 2.65103 92.2992 2.66226C92.288 2.67349 92.2768 2.68473 92.2655 2.69596C92.2543 2.70719 92.2431 2.71843 92.2319 2.71843C92.2095 2.74089 92.187 2.75213 92.1646 2.76336C92.1422 2.77459 92.1085 2.79706 92.0861 2.80829C92.0749 2.80829 92.0637 2.81953 92.0525 2.81953C91.8954 2.87569 91.7272 2.87569 91.5702 2.81953H91.559C91.559 2.81953 91.5478 2.81953 91.5478 2.80829C91.5478 2.80829 91.5366 2.80829 91.5366 2.79706C91.5254 2.79706 91.5141 2.78583 91.5141 2.78583H91.5029H91.4917C91.4805 2.77459 91.4581 2.76336 91.4468 2.76336C91.4356 2.75213 91.4244 2.74089 91.402 2.74089C91.3908 2.72966 91.3684 2.71843 91.3571 2.7072C91.3459 2.69596 91.3347 2.69596 91.3347 2.68473L91.3235 2.67349C91.3235 2.67349 91.3235 2.67349 91.3123 2.66226C91.3011 2.65103 91.2898 2.63979 91.2898 2.62856C91.2898 2.62856 91.2898 2.62856 91.2898 2.61733L91.2786 2.6061L91.2674 2.59486C91.2562 2.58363 91.2562 2.5724 91.245 2.56116C91.2338 2.5387 91.2225 2.52746 91.2225 2.505C91.2225 2.49376 91.2113 2.48253 91.2113 2.4713C91.2001 2.44883 91.2001 2.42636 91.1889 2.39266C91.1777 2.34773 91.1777 2.3028 91.1777 2.24663V0.640291C91.1777 0.471793 91.2338 0.32576 91.3571 0.190962C91.3684 0.179729 91.3908 0.157264 91.3908 0.157264C91.3908 0.157264 91.4132 0.146028 91.4244 0.123561C91.4469 0.112328 91.4805 0.0898645 91.5254 0.056165C91.5366 0.056165 91.559 0.0449313 91.5814 0.0336982C91.5814 0.0336982 91.6599 0 91.7497 0C91.7721 0 91.7945 0 91.8169 0H99.387C99.4094 0 99.4319 0 99.4543 0C99.544 0.0112332 99.6225 0.0336982 99.6225 0.0336982C99.6562 0.0449313 99.6674 0.056165 99.6786 0.056165C99.7235 0.0786314 99.7683 0.112328 99.7795 0.123561C99.802 0.134795 99.8132 0.146031 99.8132 0.157264C99.8132 0.157264 99.8244 0.168496 99.8468 0.190962C99.9702 0.314527 100.026 0.471793 100.026 0.640291V2.22417C100.026 2.2691 100.026 2.32526 100.015 2.3702C100.015 2.39266 100.004 2.42636 99.9926 2.44883C99.9926 2.46006 99.9814 2.4713 99.9814 2.48253C99.9702 2.49376 99.9702 2.51623 99.959 2.52746C99.959 2.52746 99.959 2.52746 99.959 2.5387C99.9478 2.54993 99.9478 2.56116 99.9365 2.57239C99.9253 2.58363 99.9141 2.59486 99.9141 2.6061C99.9029 2.61733 99.8917 2.62856 99.8917 2.63979C99.8917 2.63979 99.8917 2.63979 99.8805 2.65103L99.8693 2.66226C99.858 2.67349 99.858 2.67349 99.8468 2.68473C99.8356 2.69596 99.8244 2.70719 99.802 2.71843C99.7908 2.72966 99.7795 2.74089 99.7571 2.74089C99.7459 2.75213 99.7235 2.76336 99.7122 2.76336H99.701H99.6898C99.6786 2.76336 99.6674 2.77459 99.6674 2.77459C99.6674 2.77459 99.6562 2.77459 99.6562 2.78583C99.6562 2.78583 99.645 2.78583 99.645 2.79706H99.6337C99.4767 2.85322 99.3085 2.85322 99.1515 2.79706C99.1403 2.79706 99.1291 2.78583 99.1179 2.78583C99.0954 2.77459 99.0618 2.76336 99.0393 2.74089C99.0169 2.72966 98.9945 2.70719 98.9721 2.69596C98.9608 2.68473 98.9496 2.67349 98.9384 2.67349C98.9272 2.66226 98.916 2.65103 98.9048 2.63979C98.8936 2.62856 98.8823 2.61733 98.8823 2.6061C98.8711 2.59486 98.8599 2.58363 98.8599 2.57239C98.8487 2.56116 98.8487 2.54993 98.8375 2.5387C98.8375 2.52746 98.8263 2.51623 98.8151 2.505C98.8038 2.49376 98.8038 2.48253 98.7926 2.46006C98.7926 2.44883 98.7814 2.4376 98.7814 2.42637C98.7814 2.41513 98.7702 2.4039 98.7702 2.38143C98.7702 2.3702 98.759 2.35896 98.759 2.34773C98.759 2.3365 98.759 2.31403 98.7478 2.3028C98.7478 2.2691 98.7478 2.24663 98.7478 2.21293V1.26935H96.2581V10.5704H97.8618C98.0188 10.5704 98.1534 10.6153 98.2655 10.694C98.3104 10.7277 98.344 10.7726 98.3777 10.8063C98.4786 10.9299 98.5122 11.0422 98.5459 11.1433C98.602 11.323 98.6244 11.4241 98.6693 11.5814C98.7814 12.0757 99.1403 12.7721 99.7459 13.3113C99.9029 13.4573 100.071 13.5809 100.239 13.6932C100.778 14.0415 101.35 14.21 101.944 14.21C102.841 14.21 103.604 14.0302 104.209 13.6708C104.804 13.3113 105.028 12.8845 105.084 12.334C105.095 12.188 105.107 11.6713 104.793 11.1658C104.624 10.8962 104.434 10.7389 104.299 10.6378C104.008 10.4019 103.727 10.2896 103.155 10.0986C102.774 9.96382 102.292 9.81779 101.742 9.64929L101.024 9.43586C100.127 9.1438 99.5664 8.94161 99.2973 8.81804C98.344 8.32378 97.8281 7.55992 97.7721 6.54894C97.7721 5.54919 98.1758 4.8078 98.9833 4.34724C99.7683 3.88668 100.733 3.65078 101.866 3.65078H101.955C102.976 3.65078 103.873 3.94284 104.624 4.51573C104.737 4.4034 104.882 4.34724 105.073 4.34724C105.252 4.34724 105.398 4.41463 105.533 4.5382C105.667 4.66176 105.723 4.81903 105.723 4.98753V6.57141C105.723 6.81854 105.611 7.0095 105.398 7.12183C105.185 7.23416 104.972 7.23416 104.759 7.12183C104.546 7.0095 104.434 6.81854 104.434 6.57141V6.08838C104.019 5.57165 103.738 5.36945 103.346 5.17849C102.998 5.00999 102.527 4.92013 101.966 4.92013H101.854C100.968 4.92013 100.273 5.06616 99.7907 5.34699C99.5328 5.49302 99.3534 5.68399 99.23 5.89742C99.1851 5.98728 99.0618 6.22318 99.0842 6.53771C99.1291 7.15553 99.701 7.55993 99.9478 7.66103C99.9814 7.67226 100.105 7.72842 100.239 7.77336C100.273 7.78459 100.408 7.84075 100.643 7.91939C100.811 7.97555 100.856 7.99802 101.058 8.06542C101.26 8.13281 101.417 8.18898 101.495 8.21145C101.675 8.27885 102.034 8.39118 102.785 8.61584C103.323 8.76187 103.839 8.95284 104.333 9.1775C104.826 9.3797 105.308 9.70546 105.757 10.2784C106.094 10.8063 106.351 11.4466 106.351 12.3453Z" fill="#841A10"/>
<path d="M91.2671 2.59473C91.2671 2.5835 91.2559 2.5835 91.2559 2.57227C91.2559 2.5835 91.2559 2.5835 91.2671 2.59473Z" fill="#841A10"/>
</svg>
