<svg width="24" height="19" viewBox="0 0 24 19" fill="none" xmlns="http://www.w3.org/2000/svg">
<path d="M7.73924 3.66793C7.73436 3.65818 7.72949 3.65331 7.72461 3.64355C7.72949 3.64843 7.72949 3.65331 7.73436 3.65818C7.73436 3.66306 7.73436 3.66305 7.73924 3.66793Z" fill="white"/>
<path d="M23.915 14.1033C23.915 14.8348 23.6566 15.4882 23.1397 16.0392C22.2083 16.9901 20.8673 17.4778 19.1605 17.4778C18.2584 17.4778 17.4001 17.2242 16.6004 16.7171C16.5419 16.678 16.2542 16.5025 15.9275 16.2148C15.9275 16.2148 15.0692 15.4736 14.6303 14.5861C14.6011 14.5227 14.5669 14.4495 14.5669 14.4495C14.5133 14.3422 14.4597 14.2203 14.4012 14.0692C14.3231 13.8692 14.2646 13.7034 14.2305 13.5718H13.0699V16.7122H13.616C13.9671 16.7122 14.25 16.995 14.25 17.3461V17.4632C14.25 17.8143 13.9671 18.0971 13.616 18.0971H11.1291C10.778 18.0971 10.4951 17.8143 10.4951 17.4632V17.3461C10.4951 16.995 10.778 16.7122 11.1291 16.7122H11.6752V13.5718H10.5146C10.4805 13.7034 10.422 13.8741 10.344 14.0692C10.2855 14.2155 10.2269 14.3422 10.1782 14.4495C10.1782 14.4495 10.144 14.5227 10.1148 14.5861C9.67591 15.4736 8.81765 16.2148 8.81765 16.2148C8.49093 16.5025 8.20322 16.678 8.14471 16.7171C7.34497 17.2242 6.48672 17.4778 5.58459 17.4778C3.87784 17.4778 2.53682 16.9901 1.60543 16.0392C1.08853 15.4882 0.830078 14.8396 0.830078 14.1033C0.830078 13.1426 1.10804 12.4453 1.51278 11.9187C1.98579 11.3042 2.51244 10.9531 3.03909 10.7386C3.56575 10.4996 4.13141 10.2948 4.70196 10.1436C5.51144 9.89982 5.8918 9.77304 6.08686 9.70477C6.17463 9.67551 6.34044 9.61699 6.55012 9.54385C6.76956 9.4707 6.81832 9.45607 6.99875 9.39268C7.2572 9.3049 7.39862 9.25126 7.43275 9.23664C7.57904 9.18299 7.71071 9.12935 7.74484 9.10984C8.01305 8.99281 8.62747 8.56856 8.67136 7.90537C8.69574 7.5689 8.5592 7.31044 8.51044 7.21779C8.38365 6.98372 8.1886 6.78379 7.91064 6.62775C7.38886 6.32053 6.64277 6.16449 5.69187 6.16449H5.57484C4.96529 6.16449 4.46789 6.26202 4.0924 6.43757C3.66815 6.63263 3.37069 6.86182 2.92694 7.40798V7.92975C2.92694 8.19795 2.8099 8.40277 2.57584 8.5198C2.34664 8.63196 2.11745 8.63195 1.88826 8.51492C1.65907 8.39789 1.53716 8.19795 1.53716 7.92975V6.22788C1.53716 6.04745 1.60543 5.88653 1.74685 5.74999C1.88826 5.61345 2.04919 5.54518 2.23449 5.54518C2.42955 5.54518 2.59047 5.6037 2.71238 5.72561C3.52186 5.11118 4.48252 4.79909 5.57484 4.79909H5.66748C6.87684 4.79909 7.91552 5.04779 8.75914 5.54031C9.61739 6.0377 10.0563 6.83256 10.0563 7.90049C9.99287 8.98794 9.44183 9.8023 8.41778 10.3338C8.13007 10.4704 7.5254 10.6898 6.56475 10.997L5.79915 11.2213C5.2091 11.392 4.70195 11.5578 4.28746 11.6992C3.66815 11.9089 3.37557 12.0308 3.0586 12.2795C2.91719 12.3917 2.71238 12.5575 2.53195 12.8501C2.1906 13.3962 2.20035 13.9473 2.21498 14.1033C2.27837 14.6933 2.5222 15.1517 3.15126 15.5321C3.79982 15.9222 4.60931 16.1124 5.57484 16.1124C6.21853 16.1124 6.83295 15.9271 7.4035 15.5516C7.59368 15.4297 7.76922 15.2931 7.9399 15.142C8.58846 14.5617 8.96882 13.8253 9.0956 13.2889C9.13462 13.1231 9.159 13.0159 9.2224 12.8257C9.26141 12.7135 9.30529 12.5916 9.4077 12.4599C9.43695 12.4209 9.47109 12.377 9.52473 12.338C9.63689 12.2503 9.78319 12.2015 9.95386 12.2015H11.6704V2.24873H8.99808V3.26302C8.99808 3.29716 8.99808 3.33129 8.99321 3.36055V3.36542C8.99321 3.38493 8.98833 3.39956 8.98345 3.41419C8.98345 3.42882 8.97857 3.43857 8.97369 3.4532C8.96882 3.46783 8.96394 3.48246 8.95907 3.49709C8.95419 3.51172 8.94931 3.52635 8.94444 3.5361C8.93956 3.55073 8.92981 3.56536 8.92494 3.57999C8.92006 3.58974 8.9103 3.60437 8.90543 3.61412C8.89567 3.62875 8.8908 3.6385 8.88105 3.64826C8.8713 3.65801 8.86642 3.67264 8.85667 3.68239C8.84691 3.69214 8.83716 3.70677 8.82741 3.71653C8.81766 3.72628 8.8079 3.73603 8.79814 3.74578C8.78839 3.75554 8.77377 3.76529 8.76401 3.77504C8.73963 3.79455 8.71525 3.80918 8.68599 3.82868C8.65673 3.84819 8.63235 3.85795 8.60309 3.87258C8.58846 3.87745 8.57871 3.88233 8.56896 3.8872C8.40316 3.94572 8.21785 3.9506 8.05205 3.89208C8.04718 3.89208 8.04718 3.8872 8.0423 3.8872C8.03743 3.8872 8.03255 3.88232 8.02768 3.88232C8.0228 3.87745 8.01792 3.87745 8.01305 3.87258C8.00329 3.8677 7.99354 3.86282 7.98378 3.85794H7.97891C7.97403 3.85794 7.97403 3.85307 7.96915 3.85307C7.96428 3.85307 7.96428 3.84819 7.95941 3.84819C7.9399 3.83844 7.92527 3.82869 7.91064 3.81894C7.89601 3.80918 7.88138 3.79942 7.86675 3.78967C7.85212 3.77992 7.83749 3.76529 7.82286 3.75554C7.81311 3.74579 7.80336 3.74091 7.79848 3.73116C7.79361 3.72628 7.78873 3.7214 7.78385 3.71653C7.78385 3.71165 7.77897 3.71165 7.77897 3.70677C7.76922 3.69702 7.75947 3.68727 7.74972 3.67752C7.74972 3.67752 7.74972 3.67264 7.74484 3.67264L7.73996 3.66776C7.73509 3.66288 7.73021 3.65801 7.73021 3.65313C7.72534 3.64825 7.72046 3.64338 7.72046 3.6385C7.71071 3.62875 7.70583 3.61412 7.69608 3.60437C7.68632 3.58487 7.67657 3.57024 7.66682 3.55073C7.66194 3.5361 7.65707 3.52635 7.65219 3.51172C7.64244 3.48734 7.63756 3.45808 7.63268 3.43369C7.62293 3.38493 7.61805 3.33617 7.61805 3.28253V1.58065C7.61805 1.40023 7.68145 1.23931 7.81311 1.10277C7.82774 1.08814 7.84724 1.07351 7.84724 1.07351C7.85212 1.06863 7.86675 1.05888 7.88626 1.04425C7.90576 1.02962 7.94477 1.00036 7.99841 0.975983C8.01304 0.971106 8.03255 0.961355 8.06181 0.946725C8.06181 0.946725 8.14958 0.917466 8.24711 0.907713C8.2715 0.907713 8.291 0.902832 8.31538 0.902832H16.4346C16.459 0.902832 16.4785 0.902837 16.5029 0.907713C16.6004 0.917466 16.6882 0.946725 16.6882 0.946725C16.7174 0.956478 16.7418 0.971106 16.7516 0.975983C16.8052 1.00036 16.8442 1.02962 16.8637 1.04425C16.8832 1.05888 16.8979 1.06863 16.9027 1.07351C16.9027 1.07351 16.9223 1.08814 16.9369 1.10277C17.0637 1.23931 17.1319 1.40023 17.1319 1.58065V3.28253C17.1319 3.33617 17.1271 3.38493 17.1173 3.43369C17.1124 3.46295 17.1027 3.48734 17.0978 3.51172C17.0929 3.52635 17.0881 3.54098 17.0832 3.55073C17.0783 3.56536 17.0686 3.57998 17.0588 3.59949C17.0588 3.59949 17.0539 3.60437 17.0539 3.60925C17.049 3.62387 17.0393 3.63363 17.0295 3.64338V3.64826C17.0198 3.66289 17.01 3.67264 17.0003 3.68727C16.9905 3.69702 16.9808 3.70677 16.971 3.71653C16.971 3.7214 16.9661 3.72141 16.9661 3.72628C16.9613 3.73116 16.9564 3.73603 16.9515 3.74091C16.9418 3.75066 16.932 3.76042 16.9271 3.76529C16.9125 3.77992 16.8979 3.78967 16.8833 3.79943C16.8686 3.80918 16.854 3.81893 16.8394 3.82868C16.8247 3.83844 16.8052 3.84819 16.7906 3.85794C16.7857 3.85794 16.7857 3.86282 16.7808 3.86282C16.776 3.86282 16.776 3.86769 16.7711 3.86769H16.7662C16.7565 3.87257 16.7467 3.87745 16.737 3.88232C16.7321 3.8872 16.7272 3.8872 16.7223 3.89208C16.7174 3.89696 16.7126 3.89695 16.7077 3.89695C16.7028 3.89695 16.7028 3.90183 16.6979 3.90183C16.5321 3.96035 16.3468 3.96035 16.181 3.89695C16.1664 3.89208 16.1567 3.8872 16.1469 3.88232C16.1177 3.86769 16.0884 3.85794 16.064 3.83844C16.0396 3.82381 16.0104 3.8043 15.986 3.7848C15.9762 3.77504 15.9616 3.76529 15.9519 3.75554C15.9421 3.74579 15.9324 3.73603 15.9226 3.72628C15.9128 3.71653 15.9031 3.70677 15.8933 3.69214C15.8836 3.68239 15.8738 3.66777 15.8689 3.65801C15.8592 3.64338 15.8543 3.63363 15.8446 3.62387C15.8397 3.61412 15.8299 3.60437 15.8251 3.58974C15.8153 3.57511 15.8104 3.56048 15.8056 3.54585C15.8007 3.53122 15.7958 3.52147 15.7909 3.50684C15.786 3.49222 15.7812 3.47758 15.7763 3.46295C15.7714 3.44832 15.7714 3.43857 15.7665 3.42394C15.7617 3.40931 15.7617 3.39469 15.7568 3.37518V3.3703C15.7519 3.34104 15.7519 3.30691 15.7519 3.27277V2.25848H13.0796V12.2112H14.7961C14.9668 12.2112 15.1131 12.2551 15.2253 12.3478C15.2789 12.3917 15.313 12.4307 15.3423 12.4697C15.4447 12.6014 15.4935 12.7281 15.5276 12.8354C15.591 13.0305 15.6154 13.1378 15.6544 13.2987C15.7812 13.8351 16.1567 14.5714 16.8101 15.1517C16.9808 15.3029 17.1563 15.4443 17.3465 15.5613C17.9219 15.9368 18.5364 16.1221 19.1752 16.1221C20.1407 16.1221 20.9551 15.9271 21.5987 15.5418C22.2327 15.1615 22.4765 14.7031 22.535 14.1131C22.5496 13.9619 22.5594 13.4108 22.2181 12.8598C22.0376 12.5721 21.8328 12.4063 21.6914 12.2893C21.3744 12.0357 21.0818 11.9187 20.4625 11.709C20.048 11.5676 19.5409 11.4018 18.9508 11.2311L18.1852 11.0068C17.2246 10.6996 16.6199 10.4801 16.3322 10.3436C15.3082 9.81205 14.7571 8.99769 14.6937 7.91025C14.6937 6.84231 15.1326 6.04745 15.9909 5.55006C16.8296 5.05754 17.8683 4.80885 19.0825 4.80885H19.1752C20.2675 4.80885 21.2281 5.12094 22.0376 5.73536C22.1595 5.61345 22.3205 5.55494 22.5155 5.55494C22.7057 5.55494 22.8666 5.62321 23.0032 5.75975C23.1397 5.89141 23.2128 6.05721 23.2128 6.23763V7.93951C23.2128 8.20771 23.0909 8.41252 22.8617 8.52468C22.6325 8.63683 22.4033 8.64171 22.1742 8.52955C21.945 8.40764 21.8231 8.20771 21.8231 7.93951V7.41773C21.3793 6.87157 21.0818 6.64238 20.6576 6.44732C20.2821 6.27177 19.7847 6.17424 19.1752 6.17424H19.0581C18.1072 6.17424 17.3611 6.33029 16.8394 6.6375C16.5663 6.79843 16.3663 6.99348 16.2396 7.22755C16.1908 7.3202 16.0591 7.57865 16.0786 7.91512C16.1225 8.57832 16.737 9.00257 17.0052 9.1196C17.0442 9.13423 17.1758 9.18787 17.3172 9.24638C17.3514 9.26101 17.4928 9.31466 17.7513 9.40243C17.9317 9.46583 17.9804 9.48045 18.1999 9.5536C18.4144 9.62675 18.5802 9.68526 18.6631 9.71452C18.8582 9.78279 19.2386 9.90958 20.048 10.1534C20.6186 10.3046 21.1843 10.5094 21.7109 10.7483C22.2376 10.9629 22.7642 11.3189 23.2372 11.9284C23.6371 12.4453 23.915 13.1426 23.915 14.1033Z" fill="white"/>
<path d="M7.73924 3.66793C7.73436 3.65818 7.72949 3.65331 7.72461 3.64355C7.72949 3.64843 7.72949 3.65331 7.73436 3.65818C7.73436 3.66306 7.73436 3.66305 7.73924 3.66793Z" fill="white"/>
<path d="M8.0234 3.87791C8.01852 3.87791 8.00877 3.87303 8.0039 3.86815C7.99902 3.86815 7.99414 3.86328 7.99414 3.86328C7.99902 3.86816 8.00389 3.86815 8.00877 3.86815C8.01365 3.87303 8.01852 3.87791 8.0234 3.87791Z" fill="white"/>
</svg>
