<svg width="24" height="18" viewBox="0 0 24 18" fill="none" xmlns="http://www.w3.org/2000/svg">
<path d="M7.07957 3.16787C7.07469 3.15812 7.06982 3.15325 7.06494 3.14349C7.06982 3.14837 7.06982 3.15325 7.0747 3.15812C7.0747 3.163 7.07469 3.16299 7.07957 3.16787Z" fill="#841A10"/>
<path d="M23.2549 13.6034C23.2549 14.3348 22.9964 14.9883 22.4795 15.5393C21.5481 16.4902 20.2071 16.9778 18.5004 16.9778C17.5982 16.9778 16.74 16.7243 15.9403 16.2171C15.8817 16.1781 15.594 16.0026 15.2673 15.7148C15.2673 15.7148 14.4091 14.9736 13.9702 14.0861C13.9409 14.0227 13.9068 13.9496 13.9068 13.9496C13.8532 13.8423 13.7995 13.7204 13.741 13.5692C13.663 13.3693 13.6045 13.2035 13.5703 13.0718H12.4097V16.2122H12.9559C13.307 16.2122 13.5898 16.4951 13.5898 16.8462V16.9632C13.5898 17.3143 13.307 17.5971 12.9559 17.5971H10.4689C10.1178 17.5971 9.83499 17.3143 9.83499 16.9632V16.8462C9.83499 16.4951 10.1178 16.2122 10.4689 16.2122H11.0151V13.0718H9.85449C9.82035 13.2035 9.76184 13.3742 9.68382 13.5692C9.6253 13.7155 9.56678 13.8423 9.51801 13.9496C9.51801 13.9496 9.48388 14.0227 9.45463 14.0861C9.01575 14.9736 8.1575 15.7148 8.1575 15.7148C7.83078 16.0026 7.54307 16.1781 7.48455 16.2171C6.68482 16.7243 5.82657 16.9778 4.92443 16.9778C3.21768 16.9778 1.87667 16.4902 0.945271 15.5393C0.42837 14.9883 0.169922 14.3397 0.169922 13.6034C0.169922 12.6427 0.447882 11.9454 0.852625 11.4187C1.32564 10.8043 1.85229 10.4532 2.37894 10.2386C2.90559 9.99968 3.47126 9.79487 4.0418 9.6437C4.85128 9.39988 5.23164 9.2731 5.4267 9.20483C5.51448 9.17557 5.68028 9.11705 5.88997 9.04391C6.1094 8.97076 6.15817 8.95613 6.3386 8.89274C6.59705 8.80496 6.73846 8.75133 6.7726 8.7367C6.91889 8.68306 7.05055 8.62941 7.08469 8.60991C7.35289 8.49287 7.96732 8.06862 8.0112 7.40543C8.03559 7.06896 7.89904 6.8105 7.85028 6.71785C7.72349 6.48378 7.52844 6.28386 7.25048 6.12781C6.72871 5.8206 5.98261 5.66455 5.03171 5.66455H4.91468C4.30513 5.66455 3.80773 5.76208 3.43225 5.93763C3.008 6.13269 2.71054 6.36188 2.26678 6.90804V7.42981C2.26678 7.69802 2.14975 7.90283 1.91568 8.01986C1.68649 8.13202 1.4573 8.13202 1.2281 8.01498C0.998912 7.89795 0.877001 7.69802 0.877001 7.42981V5.72794C0.877001 5.54751 0.945275 5.38659 1.08669 5.25005C1.22811 5.11351 1.38903 5.04524 1.57433 5.04524C1.76939 5.04524 1.93031 5.10376 2.05222 5.22567C2.86171 4.61124 3.82236 4.29915 4.91468 4.29915H5.00733C6.21668 4.29915 7.25536 4.54785 8.09898 5.04037C8.95723 5.53777 9.3961 6.33262 9.3961 7.40056C9.33271 8.488 8.78168 9.30236 7.75763 9.83389C7.46992 9.97043 6.86525 10.1899 5.90459 10.4971L5.13899 10.7214C4.54895 10.8921 4.0418 11.0579 3.6273 11.1993C3.008 11.409 2.71542 11.5309 2.39845 11.7796C2.25703 11.8917 2.05222 12.0575 1.87179 12.3501C1.53045 12.8963 1.54019 13.4473 1.55482 13.6034C1.61822 14.1934 1.86204 14.6518 2.4911 15.0321C3.13967 15.4223 3.94915 15.6124 4.91468 15.6124C5.55837 15.6124 6.1728 15.4271 6.74334 15.0517C6.93352 14.9297 7.10907 14.7932 7.27974 14.642C7.9283 14.0617 8.30866 13.3254 8.43545 12.789C8.47446 12.6232 8.49885 12.5159 8.56224 12.3257C8.60125 12.2136 8.64513 12.0917 8.74754 11.96C8.7768 11.921 8.81094 11.8771 8.86458 11.8381C8.97673 11.7503 9.12303 11.7016 9.2937 11.7016H11.0102V1.74879H8.33792V2.76308C8.33792 2.79722 8.33792 2.83135 8.33305 2.86061V2.86549C8.33305 2.88499 8.32817 2.89962 8.32329 2.91425C8.32329 2.92888 8.31841 2.93864 8.31354 2.95326C8.30866 2.96789 8.30379 2.98252 8.29891 2.99715C8.29403 3.01178 8.28916 3.02641 8.28428 3.03616C8.2794 3.05079 8.26966 3.06542 8.26478 3.08005C8.2599 3.0898 8.25015 3.10443 8.24527 3.11418C8.23552 3.12881 8.23065 3.13857 8.22089 3.14832C8.21114 3.15807 8.20626 3.1727 8.19651 3.18245C8.18676 3.1922 8.177 3.20684 8.16725 3.21659C8.1575 3.22634 8.14774 3.23609 8.13799 3.24585C8.12823 3.2556 8.11361 3.26535 8.10386 3.2751C8.07947 3.29461 8.05509 3.30924 8.02583 3.32874C7.99657 3.34825 7.97219 3.35801 7.94293 3.37264C7.9283 3.37751 7.91856 3.38239 7.9088 3.38727C7.743 3.44578 7.55769 3.45066 7.3919 3.39214C7.38702 3.39214 7.38702 3.38727 7.38215 3.38727C7.37727 3.38727 7.3724 3.38238 7.36752 3.38238C7.36264 3.37751 7.35777 3.37751 7.35289 3.37264C7.34314 3.36776 7.33338 3.36288 7.32363 3.358H7.31875C7.31388 3.358 7.31387 3.35313 7.309 3.35313C7.30412 3.35313 7.30413 3.34825 7.29925 3.34825C7.27974 3.3385 7.26511 3.32875 7.25048 3.319C7.23585 3.30924 7.22123 3.29948 7.2066 3.28973C7.19197 3.27998 7.17733 3.26535 7.1627 3.2556C7.15295 3.24585 7.1432 3.24097 7.13833 3.23122C7.13345 3.22634 7.12858 3.22146 7.1237 3.21659C7.1237 3.21171 7.11882 3.21171 7.11882 3.20683C7.10907 3.19708 7.09931 3.18733 7.08956 3.17758C7.08956 3.17758 7.08956 3.1727 7.08469 3.1727L7.07981 3.16782C7.07493 3.16294 7.07006 3.15807 7.07006 3.15319C7.06518 3.14832 7.0603 3.14344 7.0603 3.13856C7.05055 3.12881 7.04567 3.11419 7.03592 3.10443C7.02617 3.08493 7.01642 3.0703 7.00666 3.05079C7.00179 3.03616 6.99691 3.02641 6.99203 3.01178C6.98228 2.9874 6.9774 2.95814 6.97252 2.93376C6.96277 2.88499 6.95789 2.83623 6.95789 2.78259V1.08071C6.95789 0.900287 7.02129 0.739368 7.15296 0.602828C7.16759 0.588199 7.18709 0.573571 7.18709 0.573571C7.19196 0.568694 7.20659 0.558943 7.2261 0.544313C7.2456 0.529684 7.28461 0.500426 7.33825 0.476044C7.35288 0.471167 7.37239 0.461416 7.40165 0.446786C7.40165 0.446786 7.48943 0.417527 7.58696 0.407774C7.61134 0.407774 7.63084 0.402893 7.65523 0.402893H15.7745C15.7988 0.402893 15.8184 0.402898 15.8427 0.407774C15.9403 0.417527 16.028 0.446786 16.028 0.446786C16.0573 0.456539 16.0817 0.471167 16.0914 0.476044C16.1451 0.500426 16.1841 0.529684 16.2036 0.544313C16.2231 0.558943 16.2377 0.568694 16.2426 0.573571C16.2426 0.573571 16.2621 0.588199 16.2767 0.602828C16.4035 0.739368 16.4718 0.900287 16.4718 1.08071V2.78259C16.4718 2.83623 16.4669 2.88499 16.4572 2.93376C16.4523 2.96301 16.4425 2.9874 16.4377 3.01178C16.4328 3.02641 16.4279 3.04104 16.423 3.05079C16.4182 3.06542 16.4084 3.08005 16.3986 3.09955C16.3986 3.09955 16.3938 3.10443 16.3938 3.10931C16.3889 3.12394 16.3791 3.13369 16.3694 3.14345V3.14832C16.3596 3.16295 16.3499 3.1727 16.3401 3.18733C16.3304 3.19708 16.3206 3.20684 16.3109 3.21659C16.3109 3.22146 16.306 3.22147 16.306 3.22634C16.3011 3.23122 16.2962 3.2361 16.2914 3.24097C16.2816 3.25072 16.2719 3.26048 16.267 3.26536C16.2524 3.27998 16.2377 3.28973 16.2231 3.29949C16.2085 3.30924 16.1938 3.31899 16.1792 3.32874C16.1646 3.3385 16.1451 3.34825 16.1304 3.358C16.1256 3.358 16.1256 3.36288 16.1207 3.36288C16.1158 3.36288 16.1158 3.36776 16.1109 3.36776H16.1061C16.0963 3.37263 16.0865 3.37751 16.0768 3.38238C16.0719 3.38726 16.067 3.38726 16.0622 3.39214C16.0573 3.39702 16.0524 3.39701 16.0475 3.39701C16.0427 3.39701 16.0427 3.40189 16.0378 3.40189C15.872 3.46041 15.6867 3.46041 15.5209 3.39701C15.5063 3.39214 15.4965 3.38726 15.4868 3.38238C15.4575 3.36776 15.4282 3.358 15.4038 3.3385C15.3795 3.32387 15.3502 3.30436 15.3258 3.28486C15.3161 3.2751 15.3015 3.26535 15.2917 3.2556C15.2819 3.24585 15.2722 3.2361 15.2624 3.22634C15.2527 3.21659 15.2429 3.20683 15.2332 3.1922C15.2234 3.18245 15.2137 3.16783 15.2088 3.15807C15.199 3.14344 15.1942 3.13369 15.1844 3.12393C15.1795 3.11418 15.1698 3.10443 15.1649 3.0898C15.1552 3.07517 15.1503 3.06054 15.1454 3.04591C15.1405 3.03128 15.1356 3.02154 15.1308 3.00691C15.1259 2.99228 15.121 2.97764 15.1161 2.96301C15.1113 2.94838 15.1113 2.93863 15.1064 2.924C15.1015 2.90937 15.1015 2.89475 15.0966 2.87524V2.87036C15.0918 2.8411 15.0918 2.80697 15.0918 2.77283V1.75854H12.4195V11.7113H14.136C14.3067 11.7113 14.453 11.7552 14.5651 11.8478C14.6188 11.8917 14.6529 11.9307 14.6821 11.9698C14.7846 12.1014 14.8333 12.2282 14.8675 12.3355C14.9308 12.5305 14.9552 12.6378 14.9942 12.7987C15.121 13.3352 15.4965 14.0715 16.1499 14.6518C16.3206 14.803 16.4962 14.9444 16.6863 15.0614C17.2618 15.4369 17.8762 15.6222 18.515 15.6222C19.4805 15.6222 20.2949 15.4271 20.9386 15.0419C21.5725 14.6615 21.8163 14.2032 21.8749 13.6131C21.8895 13.4619 21.8992 12.9109 21.5579 12.3599C21.3775 12.0722 21.1727 11.9064 21.0312 11.7893C20.7143 11.5358 20.4217 11.4187 19.8024 11.209C19.3879 11.0676 18.8807 10.9018 18.2907 10.7311L17.5251 10.5068C16.5644 10.1996 15.9598 9.98018 15.6721 9.84364C14.648 9.31211 14.097 8.49775 14.0336 7.41031C14.0336 6.34237 14.4725 5.54751 15.3307 5.05012C16.1694 4.5576 17.2081 4.30891 18.4224 4.30891H18.515C19.6073 4.30891 20.568 4.621 21.3775 5.23542C21.4994 5.11351 21.6603 5.055 21.8554 5.055C22.0455 5.055 22.2065 5.12327 22.343 5.25981C22.4795 5.39147 22.5527 5.55727 22.5527 5.7377V7.43957C22.5527 7.70777 22.4308 7.91258 22.2016 8.02474C21.9724 8.13689 21.7432 8.14177 21.514 8.02961C21.2848 7.9077 21.1629 7.70777 21.1629 7.43957V6.91779C20.7192 6.37163 20.4217 6.14244 19.9974 5.94739C19.622 5.77183 19.1246 5.6743 18.515 5.6743H18.398C17.4471 5.6743 16.701 5.83035 16.1792 6.13757C15.9061 6.29849 15.7062 6.49354 15.5794 6.72761C15.5306 6.82026 15.399 7.07871 15.4185 7.41518C15.4624 8.07838 16.0768 8.50263 16.345 8.61966C16.384 8.63429 16.5157 8.68793 16.6571 8.74644C16.6912 8.76107 16.8326 8.81472 17.0911 8.90249C17.2715 8.96589 17.3203 8.98051 17.5397 9.05366C17.7543 9.12681 17.9201 9.18532 18.003 9.21458C18.198 9.28285 18.5784 9.40964 19.3879 9.65346C19.9584 9.80463 20.5241 10.0094 21.0507 10.2484C21.5774 10.4629 22.1041 10.8189 22.5771 11.4285C22.9769 11.9454 23.2549 12.6427 23.2549 13.6034Z" fill="#841A10"/>
<path d="M7.07957 3.16787C7.07469 3.15812 7.06982 3.15325 7.06494 3.14349C7.06982 3.14837 7.06982 3.15325 7.0747 3.15812C7.0747 3.163 7.07469 3.16299 7.07957 3.16787Z" fill="#841A10"/>
<path d="M7.36275 3.37773C7.35788 3.37773 7.34813 3.37285 7.34325 3.36797C7.33837 3.36797 7.3335 3.3631 7.3335 3.3631C7.33837 3.36797 7.34325 3.36797 7.34812 3.36797C7.353 3.37285 7.35788 3.37773 7.36275 3.37773Z" fill="#841A10"/>
</svg>
