<svg width="28" height="28" viewBox="0 0 28 28" fill="none" xmlns="http://www.w3.org/2000/svg">
<g clip-path="url(#clip0_356_11363)">
<rect width="28" height="28" rx="14" fill="#EBEBEB"/>
<path d="M21 14C21 14.0807 20.9679 14.1581 20.9109 14.2152C20.8538 14.2723 20.7764 14.3043 20.6957 14.3043H14.3043V20.6957C14.3043 20.7764 14.2723 20.8538 14.2152 20.9109C14.1581 20.9679 14.0807 21 14 21C13.9193 21 13.8419 20.9679 13.7848 20.9109C13.7277 20.8538 13.6957 20.7764 13.6957 20.6957V14.3043H7.30435C7.22363 14.3043 7.14622 14.2723 7.08914 14.2152C7.03207 14.1581 7 14.0807 7 14C7 13.9193 7.03207 13.8419 7.08914 13.7848C7.14622 13.7277 7.22363 13.6957 7.30435 13.6957H13.6957V7.30435C13.6957 7.22363 13.7277 7.14622 13.7848 7.08914C13.8419 7.03207 13.9193 7 14 7C14.0807 7 14.1581 7.03207 14.2152 7.08914C14.2723 7.14622 14.3043 7.22363 14.3043 7.30435V13.6957H20.6957C20.7764 13.6957 20.8538 13.7277 20.9109 13.7848C20.9679 13.8419 21 13.9193 21 14Z" fill="black"/>
</g>
<defs>
<clipPath id="clip0_356_11363">
<rect width="28" height="28" rx="14" fill="white"/>
</clipPath>
</defs>
</svg>
