<svg width="30" height="28" viewBox="0 0 30 28" fill="none" xmlns="http://www.w3.org/2000/svg">
<path d="M1.83025 12.0924C11.4729 8.00227 21.871 2.35427 23.5935 1.66408C28.1118 -0.142393 30.5028 0.643014 29.8116 4.64359C29.3152 7.51901 27.8442 18.085 26.7025 24.0104C26.0251 27.5242 24.4289 28.5101 22.039 26.9899C20.8897 26.2583 17.0799 21.8994 15.8209 21.0309C14.6716 20.2394 12.2785 18.4369 14.2664 16.5616C14.9738 15.8936 18.426 10.9461 22.039 7.6231C22.5124 7.18665 22.5852 7.2732 22.039 7.6231C17.1693 10.7367 10.4621 14.5089 9.60284 15.0719C8.30467 15.9219 7.17733 17.1815 4.93928 16.5616C3.24829 16.0934 2.4732 15.2849 1.83025 15.0719C-0.645629 14.2522 -0.574278 13.1125 1.83025 12.0924Z" fill="white"/>
</svg>
