<svg width="26" height="24" viewBox="0 0 26 24" fill="none" xmlns="http://www.w3.org/2000/svg">
<path d="M1.58997 10.1895C9.96671 6.69705 18.9997 1.87442 20.496 1.28509C24.4211 -0.257398 26.4983 0.413235 25.8978 3.82919C25.4666 6.28441 24.1887 15.3064 23.1969 20.3659C22.6084 23.3662 21.2218 24.208 19.1456 22.91C18.1472 22.2853 14.8376 18.5633 13.7439 17.8218C12.7454 17.1459 10.6665 15.6068 12.3934 14.0056C13.008 13.4352 16.007 9.21068 19.1456 6.3733C19.5569 6.00062 19.6202 6.07453 19.1456 6.3733C14.9153 9.03192 9.08863 12.2529 8.34214 12.7336C7.2144 13.4593 6.23506 14.5349 4.29084 14.0056C2.82184 13.6058 2.14851 12.9155 1.58997 12.7336C-0.560868 12.0337 -0.498884 11.0605 1.58997 10.1895Z" fill="#841A10"/>
</svg>
