<svg width="16" height="16" viewBox="0 0 16 16" fill="none" xmlns="http://www.w3.org/2000/svg">
<path d="M0.978442 6.81921C6.13336 4.54156 11.6921 1.39636 12.613 1.01201C15.0284 0.00604454 16.3067 0.443414 15.9371 2.67121C15.6717 4.27244 14.8853 10.1563 14.275 13.456C13.9129 15.4127 13.0596 15.9617 11.7819 15.1152C11.1675 14.7078 9.13085 12.2804 8.45777 11.7968C7.84335 11.356 6.56401 10.3523 7.62673 9.30801C8.0049 8.93602 9.85047 6.18088 11.7819 4.33041C12.035 4.08736 12.074 4.13556 11.7819 4.33041C9.17862 6.0643 5.59301 8.16492 5.13362 8.47841C4.43963 8.95173 3.83696 9.65322 2.64052 9.30801C1.73652 9.04725 1.32216 8.59705 0.978442 8.47841C-0.34515 8.02197 -0.307006 7.38728 0.978442 6.81921Z" fill="#841A10"/>
</svg>
