<svg width="31" height="31" viewBox="0 0 31 31" fill="none" xmlns="http://www.w3.org/2000/svg">
<path d="M25.8021 4.60284C24.4302 3.217 22.796 2.11821 20.995 1.37056C19.1939 0.622901 17.262 0.241343 15.3119 0.248136C7.14127 0.248136 0.482022 6.90739 0.482022 15.0781C0.482022 17.6969 1.17039 20.2409 2.45735 22.4855L0.362305 30.1774L8.21873 28.1122C10.3886 29.2944 12.8278 29.923 15.3119 29.923C23.4826 29.923 30.1419 23.2637 30.1419 15.093C30.1419 11.1274 28.6005 7.40122 25.8021 4.60284ZM15.3119 27.4089C13.0972 27.4089 10.9273 26.8103 9.02681 25.688L8.57788 25.4186L3.90892 26.6457L5.15098 22.0965L4.85169 21.6326C3.62122 19.6677 2.96785 17.3964 2.96615 15.0781C2.96615 8.28413 8.50305 2.74723 15.297 2.74723C18.5892 2.74723 21.6869 4.03418 24.0064 6.36866C25.1549 7.5119 26.0651 8.87174 26.6841 10.3693C27.3032 11.8669 27.6189 13.4725 27.6129 15.093C27.6428 21.887 22.1059 27.4089 15.3119 27.4089ZM22.076 18.1907C21.7018 18.0111 19.8762 17.1133 19.5469 16.9786C19.2027 16.8589 18.9633 16.799 18.7089 17.1581C18.4545 17.5323 17.7512 18.3703 17.5417 18.6097C17.3322 18.8641 17.1077 18.894 16.7336 18.6995C16.3595 18.5199 15.1623 18.1159 13.7556 16.8589C12.6482 15.8712 11.915 14.6591 11.6905 14.2849C11.481 13.9108 11.6606 13.7163 11.8551 13.5217C12.0197 13.3571 12.2292 13.0878 12.4088 12.8783C12.5884 12.6688 12.6632 12.5042 12.7829 12.2647C12.9026 12.0103 12.8428 11.8008 12.753 11.6212C12.6632 11.4417 11.915 9.61598 11.6157 8.86775C11.3164 8.14945 11.0021 8.23924 10.7777 8.22427H10.0594C9.80497 8.22427 9.41589 8.31406 9.07171 8.68818C8.74249 9.06229 7.78475 9.96017 7.78475 11.7859C7.78475 13.6115 9.1166 15.3774 9.29618 15.6168C9.47575 15.8712 11.915 19.6123 15.6262 21.2136C16.5091 21.6026 17.1975 21.8271 17.7362 21.9917C18.6191 22.276 19.4272 22.2311 20.0707 22.1414C20.789 22.0366 22.2705 21.2435 22.5698 20.3755C22.884 19.5076 22.884 18.7743 22.7793 18.6097C22.6745 18.4451 22.4501 18.3703 22.076 18.1907Z" fill="#F8F8F8"/>
</svg>
