<svg width="26" height="28" viewBox="0 0 26 28" fill="none" xmlns="http://www.w3.org/2000/svg">
<path d="M22.2111 4.42857C21.0132 3.17837 19.5865 2.18713 18.014 1.51265C16.4415 0.838166 14.7548 0.493952 13.0523 0.50008C5.91859 0.50008 0.104523 6.50756 0.104523 13.8785C0.104523 16.241 0.705528 18.536 1.82915 20.561L0 27.5L6.8593 25.637C8.75377 26.7035 10.8834 27.2705 13.0523 27.2705C20.1859 27.2705 26 21.263 26 13.892C26 10.3146 24.6543 6.95306 22.2111 4.42857ZM13.0523 25.0025C11.1186 25.0025 9.22412 24.4625 7.56482 23.45L7.17286 23.207L3.09648 24.314L4.1809 20.21L3.9196 19.7915C2.8453 18.0189 2.27486 15.97 2.27337 13.8785C2.27337 7.74956 7.10754 2.75457 13.0392 2.75457C15.9136 2.75457 18.6181 3.91557 20.6432 6.02156C21.646 7.05291 22.4406 8.27965 22.9811 9.63068C23.5216 10.9817 23.7972 12.4301 23.792 13.892C23.8181 20.021 18.9839 25.0025 13.0523 25.0025ZM18.9578 16.6865C18.6312 16.5245 17.0372 15.7145 16.7497 15.593C16.4492 15.485 16.2402 15.431 16.0181 15.755C15.796 16.0925 15.1819 16.8485 14.999 17.0645C14.8161 17.294 14.6201 17.321 14.2935 17.1455C13.9668 16.9835 12.9216 16.619 11.6935 15.485C10.7266 14.594 10.0864 13.5005 9.89045 13.163C9.70754 12.8255 9.86432 12.65 10.0342 12.4745C10.1779 12.326 10.3608 12.083 10.5176 11.894C10.6744 11.705 10.7397 11.5565 10.8442 11.3405C10.9487 11.111 10.8965 10.922 10.8181 10.7601C10.7397 10.5981 10.0864 8.95106 9.82512 8.27606C9.56382 7.62806 9.28945 7.70906 9.09347 7.69556H8.46633C8.24422 7.69556 7.90452 7.77656 7.60402 8.11406C7.31658 8.45156 6.4804 9.26155 6.4804 10.9085C6.4804 12.5555 7.64322 14.1485 7.8 14.3645C7.95678 14.594 10.0864 17.969 13.3266 19.4135C14.0975 19.7645 14.6985 19.967 15.1688 20.1155C15.9397 20.372 16.6452 20.3315 17.207 20.2505C17.8342 20.156 19.1276 19.4405 19.3889 18.6575C19.6633 17.8745 19.6633 17.213 19.5719 17.0645C19.4804 16.916 19.2844 16.8485 18.9578 16.6865Z" fill="#841A10"/>
</svg>
