<svg width="20" height="21" viewBox="0 0 20 21" fill="none" xmlns="http://www.w3.org/2000/svg">
<path d="M17.0498 3.41006C16.133 2.48399 15.041 1.74973 13.8374 1.25011C12.6339 0.750494 11.3429 0.49552 10.0398 0.50006C4.5798 0.50006 0.129805 4.95006 0.129805 10.4101C0.129805 12.1601 0.589805 13.8601 1.4498 15.3601L0.0498047 20.5001L5.2998 19.1201C6.7498 19.9101 8.3798 20.3301 10.0398 20.3301C15.4998 20.3301 19.9498 15.8801 19.9498 10.4201C19.9498 7.77006 18.9198 5.28006 17.0498 3.41006ZM10.0398 18.6501C8.5598 18.6501 7.1098 18.2501 5.8398 17.5001L5.5398 17.3201L2.4198 18.1401L3.2498 15.1001L3.0498 14.7901C2.22755 13.477 1.79094 11.9593 1.7898 10.4101C1.7898 5.87006 5.4898 2.17006 10.0298 2.17006C12.2298 2.17006 14.2998 3.03006 15.8498 4.59006C16.6173 5.35402 17.2255 6.26272 17.6392 7.26348C18.0529 8.26425 18.2638 9.33717 18.2598 10.4201C18.2798 14.9601 14.5798 18.6501 10.0398 18.6501ZM14.5598 12.4901C14.3098 12.3701 13.0898 11.7701 12.8698 11.6801C12.6398 11.6001 12.4798 11.5601 12.3098 11.8001C12.1398 12.0501 11.6698 12.6101 11.5298 12.7701C11.3898 12.9401 11.2398 12.9601 10.9898 12.8301C10.7398 12.7101 9.9398 12.4401 8.9998 11.6001C8.2598 10.9401 7.7698 10.1301 7.6198 9.88006C7.4798 9.63006 7.5998 9.50006 7.7298 9.37006C7.8398 9.26006 7.9798 9.08006 8.0998 8.94006C8.2198 8.80006 8.2698 8.69006 8.3498 8.53006C8.4298 8.36006 8.3898 8.22006 8.3298 8.10006C8.2698 7.98006 7.7698 6.76006 7.5698 6.26006C7.3698 5.78006 7.1598 5.84006 7.0098 5.83006H6.5298C6.3598 5.83006 6.0998 5.89006 5.8698 6.14006C5.6498 6.39006 5.0098 6.99006 5.0098 8.21006C5.0098 9.43006 5.89981 10.6101 6.0198 10.7701C6.1398 10.9401 7.7698 13.4401 10.2498 14.5101C10.8398 14.7701 11.2998 14.9201 11.6598 15.0301C12.2498 15.2201 12.7898 15.1901 13.2198 15.1301C13.6998 15.0601 14.6898 14.5301 14.8898 13.9501C15.0998 13.3701 15.0998 12.8801 15.0298 12.7701C14.9598 12.6601 14.8098 12.6101 14.5598 12.4901Z" fill="#F8F8F8"/>
</svg>
